<?xml version="1.0" encoding="UTF-8"?>
<svg width="806px" height="138px" viewBox="0 0 806 138" version="1.1" xmlns="http://www.w3.org/2000/svg" xmlns:xlink="http://www.w3.org/1999/xlink">
    <!-- Generator: Sketch 43.1 (39012) - http://www.bohemiancoding.com/sketch -->
    <title>Group 4</title>
    <desc>Created with Sketch.</desc>
    <defs>
        <ellipse id="path-1" cx="375.415044" cy="30" rx="27.2878122" ry="27.3134328"></ellipse>
        <filter x="-114.5%" y="-114.4%" width="328.9%" height="328.7%" filterUnits="objectBoundingBox" id="filter-2">
            <feMorphology radius="8.96957251" operator="dilate" in="SourceAlpha" result="shadowSpreadOuter1"></feMorphology>
            <feOffset dx="0" dy="0" in="shadowSpreadOuter1" result="shadowOffsetOuter1"></feOffset>
            <feGaussianBlur stdDeviation="14.5" in="shadowOffsetOuter1" result="shadowBlurOuter1"></feGaussianBlur>
            <feComposite in="shadowBlurOuter1" in2="SourceAlpha" operator="out" result="shadowBlurOuter1"></feComposite>
            <feColorMatrix values="0 0 0 0 1   0 0 0 0 0.264125631   0 0 0 0 0.264125631  0 0 0 0.5 0" type="matrix" in="shadowBlurOuter1"></feColorMatrix>
        </filter>
        <filter x="-117.2%" y="-117.1%" width="334.4%" height="334.2%" filterUnits="objectBoundingBox" id="filter-3">
            <feGaussianBlur stdDeviation="14.5" in="SourceAlpha" result="shadowBlurInner1"></feGaussianBlur>
            <feOffset dx="0" dy="13" in="shadowBlurInner1" result="shadowOffsetInner1"></feOffset>
            <feComposite in="shadowOffsetInner1" in2="SourceAlpha" operator="arithmetic" k2="-1" k3="1" result="shadowInnerInner1"></feComposite>
            <feColorMatrix values="0 0 0 0 1   0 0 0 0 1   0 0 0 0 1  0 0 0 0.5 0" type="matrix" in="shadowInnerInner1"></feColorMatrix>
        </filter>
    </defs>
    <g id="frontend" stroke="none" stroke-width="1" fill="none" fill-rule="evenodd">
        <g id="GameJoining-2-Copy-2" transform="translate(-237.000000, -559.000000)">
            <g id="Group-4" transform="translate(237.000000, 598.000000)">
                <path d="M449.540556,48.531224 C446.947472,48.531224 444.954069,47.8033172 443.560287,46.3474818 C442.166504,44.8916465 441.469623,42.7948405 441.469623,40.0570008 L441.469623,19.849238 L437.515191,19.849238 C437.169446,19.849238 436.877729,19.7460273 436.640029,19.5396029 C436.40233,19.3331785 436.283482,19.0126823 436.283482,18.5781045 L436.283482,16.2639898 L441.664104,15.5795333 L442.993052,5.37787237 C443.05788,5.05193908 443.203738,4.78576422 443.430633,4.5793398 C443.657528,4.37291539 443.954648,4.26970473 444.322001,4.26970473 L447.239206,4.26970473 L447.239206,15.6447196 L456.736327,15.6447196 L456.736327,19.849238 L447.239206,19.849238 L447.239206,39.6658828 C447.239206,41.0565315 447.574141,42.0886381 448.244021,42.7622336 C448.9139,43.4358291 449.778249,43.7726217 450.837091,43.7726217 C451.442144,43.7726217 451.966155,43.6911396 452.40914,43.528173 C452.852125,43.3652064 453.23568,43.1859457 453.559815,42.9903858 C453.883951,42.7948258 454.159462,42.6155652 454.386357,42.4525985 C454.613251,42.2896319 454.813132,42.2081498 454.986004,42.2081498 C455.288531,42.2081498 455.558639,42.3928425 455.796339,42.7622336 L457.481835,45.5326527 C456.487819,46.4669948 455.288536,47.2003337 453.883949,47.7326914 C452.479362,48.2650491 451.031579,48.531224 449.540556,48.531224 Z M476.378837,14.4713656 C478.777439,14.4713656 480.93831,14.873344 482.861514,15.6773128 C484.784717,16.4812816 486.426979,17.622031 487.788348,19.0995952 C489.149717,20.5771594 490.192337,22.3643335 490.916239,24.461171 C491.640142,26.5580085 492.002088,28.8992608 492.002088,31.4849982 C492.002088,34.0924645 491.640142,36.439149 490.916239,38.525122 C490.192337,40.6110951 489.149717,42.392837 487.788348,43.8704012 C486.426979,45.3479655 484.784717,46.4832827 482.861514,47.2763871 C480.93831,48.0694914 478.777439,48.4660376 476.378837,48.4660376 C473.958626,48.4660376 471.781549,48.0694914 469.84754,47.2763871 C467.913532,46.4832827 466.265868,45.3479655 464.904499,43.8704012 C463.543131,42.392837 462.500511,40.6110951 461.776608,38.525122 C461.052705,36.439149 460.69076,34.0924645 460.69076,31.4849982 C460.69076,28.8992608 461.052705,26.5580085 461.776608,24.461171 C462.500511,22.3643335 463.543131,20.5771594 464.904499,19.0995952 C466.265868,17.622031 467.913532,16.4812816 469.84754,15.6773128 C471.781549,14.873344 473.958626,14.4713656 476.378837,14.4713656 Z M476.378837,43.9355876 C479.620192,43.9355876 482.040367,42.8437274 483.639435,40.6599744 C485.238503,38.4762214 486.038025,35.4287908 486.038025,31.5175914 C486.038025,27.584663 485.238503,24.5209361 483.639435,22.3263186 C482.040367,20.1317011 479.620192,19.0344089 476.378837,19.0344089 C474.736551,19.0344089 473.304974,19.3168801 472.084064,19.8818312 C470.863154,20.4467822 469.847544,21.2616032 469.037206,22.3263186 C468.226867,23.391034 467.621823,24.7001798 467.222056,26.2537951 C466.822289,27.8074104 466.622409,29.5619917 466.622409,31.5175914 C466.622409,35.4287908 467.427333,38.4762214 469.037206,40.6599744 C470.647079,42.8437274 473.094265,43.9355876 476.378837,43.9355876 Z M533.685699,33.1472497 C531.027788,33.2341652 528.764276,33.4460187 526.895095,33.7828164 C525.025914,34.1196141 523.5025,34.5596175 522.324808,35.1028396 C521.147116,35.6460618 520.293572,36.2870543 519.76415,37.0258364 C519.234729,37.7646185 518.970023,38.5903038 518.970023,39.502917 C518.970023,40.3720724 519.110479,41.1217078 519.391397,41.7518455 C519.672314,42.3819831 520.055869,42.8980364 520.542072,43.3000208 C521.028275,43.7020052 521.600906,43.9953408 522.259981,44.1800363 C522.919056,44.3647318 523.626742,44.4570782 524.383058,44.4570782 C525.398682,44.4570782 526.327856,44.3538676 527.170609,44.1474431 C528.013361,43.9410187 528.807481,43.642251 529.552992,43.2511311 C530.298504,42.8600111 531.011591,42.3928471 531.692275,41.849625 C532.37296,41.3064028 533.037428,40.6871388 533.685699,39.9918145 L533.685699,33.1472497 Z M515.048003,19.653679 C516.863162,17.8936393 518.81875,16.5790614 520.914826,15.7099059 C523.010902,14.8407505 525.333837,14.4061793 527.883703,14.4061793 C529.720471,14.4061793 531.351928,14.7103791 532.778124,15.318788 C534.20432,15.9271968 535.403603,16.7746106 536.376009,17.8610549 C537.348416,18.9474992 538.083112,20.2620771 538.580119,21.804828 C539.077127,23.3475789 539.325627,25.0424065 539.325627,26.8893618 L539.325627,48.0097333 L536.76497,48.0097333 C536.203135,48.0097333 535.770961,47.9173869 535.468435,47.7326914 C535.165908,47.5479959 534.928212,47.1840425 534.75534,46.6408203 L534.107073,43.5118764 C533.242711,44.3158452 532.399972,45.0274555 531.578829,45.6467288 C530.757686,46.266002 529.893337,46.7874875 528.985758,47.2112007 C528.078179,47.634914 527.111189,47.9608424 526.08476,48.1889957 C525.058331,48.417149 523.918472,48.531224 522.665148,48.531224 C521.390216,48.531224 520.190932,48.3519633 519.067263,47.9934367 C517.943593,47.6349101 516.965799,47.0971282 516.133852,46.380075 C515.301904,45.6630218 514.642838,44.7558544 514.156635,43.6585457 C513.670432,42.5612369 513.427334,41.2629555 513.427334,39.7636623 C513.427334,38.4599292 513.783878,37.2051049 514.496976,35.9991517 C515.210074,34.7931985 516.366139,33.7230669 517.965208,32.7887248 C519.564276,31.8543828 521.649516,31.088451 524.220991,30.4909067 C526.792465,29.8933623 529.947336,29.5511375 533.685699,29.4642219 L533.685699,26.8893618 C533.685699,24.3253533 533.134677,22.3860793 532.032616,21.0714817 C530.930555,19.7568841 529.320707,19.0995952 527.203022,19.0995952 C525.776826,19.0995952 524.582945,19.2788558 523.621343,19.6373824 C522.659741,19.995909 521.827806,20.3978874 521.125513,20.8433296 C520.423219,21.2887717 519.818175,21.6907501 519.310363,22.0492767 C518.802551,22.4078033 518.300149,22.5870639 517.803141,22.5870639 C517.414178,22.5870639 517.079243,22.4838533 516.798326,22.2774289 C516.517409,22.0710044 516.279713,21.8156939 516.085232,21.5114895 L515.048003,19.653679 Z M569.502487,22.8478093 C568.422035,21.3919739 567.255165,20.3761637 566.001842,19.8003483 C564.748518,19.2245328 563.343952,18.9366294 561.788102,18.9366294 C558.741229,18.9366294 556.396684,20.0339216 554.754398,22.2285391 C553.112111,24.4231566 552.29098,27.5520692 552.29098,31.6153709 C552.29098,33.7665306 552.474654,35.608026 552.842008,37.1399125 C553.209362,38.6717989 553.749579,39.9320554 554.462677,40.9207197 C555.175775,41.909384 556.050928,42.6318587 557.088161,43.0881653 C558.125395,43.5444719 559.303069,43.7726217 560.62122,43.7726217 C562.522815,43.7726217 564.181283,43.3380505 565.596674,42.4688951 C567.012066,41.5997397 568.31399,40.372076 569.502487,38.7858674 L569.502487,22.8478093 Z M575.272069,0 L575.272069,48.0097333 L571.836251,48.0097333 C571.015107,48.0097333 570.496498,47.6077549 570.280408,46.8037862 L569.761794,42.7948268 C568.357207,44.4896799 566.758163,45.8585791 564.964613,46.9015657 C563.171064,47.9445522 561.096628,48.4660376 558.741244,48.4660376 C556.861258,48.4660376 555.15417,48.1020842 553.619929,47.3741666 C552.085688,46.6462489 550.778361,45.5761173 549.69791,44.1637397 C548.617458,42.7513621 547.785523,40.9913488 547.202079,38.8836469 C546.618636,36.7759449 546.326918,34.3532105 546.326918,31.6153709 C546.326918,29.1817357 546.651049,26.9165333 547.299319,24.8196958 C547.94759,22.7228583 548.876765,20.9030914 550.08687,19.3603405 C551.296976,17.8175896 552.782575,16.6062224 554.543711,15.7262025 C556.304847,14.8461826 558.287445,14.4061793 560.491566,14.4061793 C562.501206,14.4061793 564.224501,14.7484041 565.661501,15.432864 C567.098502,16.1173239 568.378817,17.0679484 569.502487,18.284766 L569.502487,0 L575.272069,0 Z M605.805476,22.8478093 C604.725025,21.3919739 603.558154,20.3761637 602.304831,19.8003483 C601.051507,19.2245328 599.646941,18.9366294 598.091091,18.9366294 C595.044218,18.9366294 592.699673,20.0339216 591.057387,22.2285391 C589.4151,24.4231566 588.59397,27.5520692 588.59397,31.6153709 C588.59397,33.7665306 588.777644,35.608026 589.144997,37.1399125 C589.512351,38.6717989 590.052568,39.9320554 590.765666,40.9207197 C591.478764,41.909384 592.353917,42.6318587 593.39115,43.0881653 C594.428384,43.5444719 595.606058,43.7726217 596.924209,43.7726217 C598.825804,43.7726217 600.484272,43.3380505 601.899663,42.4688951 C603.315055,41.5997397 604.616979,40.372076 605.805476,38.7858674 L605.805476,22.8478093 Z M611.575058,0 L611.575058,48.0097333 L608.13924,48.0097333 C607.318097,48.0097333 606.799488,47.6077549 606.583397,46.8037862 L606.064783,42.7948268 C604.660196,44.4896799 603.061152,45.8585791 601.267602,46.9015657 C599.474053,47.9445522 597.399617,48.4660376 595.044233,48.4660376 C593.164247,48.4660376 591.457159,48.1020842 589.922918,47.3741666 C588.388677,46.6462489 587.08135,45.5761173 586.000899,44.1637397 C584.920447,42.7513621 584.088512,40.9913488 583.505068,38.8836469 C582.921625,36.7759449 582.629907,34.3532105 582.629907,31.6153709 C582.629907,29.1817357 582.954038,26.9165333 583.602309,24.8196958 C584.25058,22.7228583 585.179754,20.9030914 586.38986,19.3603405 C587.599965,17.8175896 589.085564,16.6062224 590.8467,15.7262025 C592.607836,14.8461826 594.590435,14.4061793 596.794556,14.4061793 C598.804195,14.4061793 600.52749,14.7484041 601.96449,15.432864 C603.401491,16.1173239 604.681807,17.0679484 605.805476,18.284766 L605.805476,0 L611.575058,0 Z M643.11328,40.0570008 C644.172123,41.4911073 645.328188,42.5014853 646.581512,43.0881653 C647.834836,43.6748452 649.239402,43.9681807 650.795252,43.9681807 C653.863734,43.9681807 656.219083,42.8708885 657.861369,40.676271 C659.503656,38.4816535 660.324787,35.3527409 660.324787,31.2894392 C660.324787,29.1382795 660.13571,27.2913519 659.757552,25.748601 C659.379394,24.2058501 658.833775,22.9401615 658.120677,21.9514972 C657.407579,20.9628329 656.532426,20.2403583 655.495193,19.7840517 C654.457959,19.3277451 653.280285,19.0995952 651.962134,19.0995952 C650.082148,19.0995952 648.434484,19.5341664 647.019093,20.4033218 C645.603701,21.2724773 644.301777,22.5001409 643.11328,24.0863496 L643.11328,40.0570008 Z M642.82156,20.1099833 C644.204538,18.3934013 645.803582,17.0136378 647.61874,15.9706513 C649.433899,14.9276647 651.508335,14.4061793 653.84211,14.4061793 C655.743705,14.4061793 657.461597,14.7701327 658.995838,15.4980504 C660.530079,16.225968 661.837406,17.3015318 662.917857,18.7247738 C663.998309,20.1480158 664.830244,21.9134613 665.413688,24.0211632 C665.997132,26.1288652 666.288849,28.5515996 666.288849,31.2894392 C666.288849,33.7230744 665.964719,35.9882768 665.316448,38.0851143 C664.668177,40.1819518 663.7336,41.9962865 662.51269,43.528173 C661.29178,45.0600595 659.800779,46.2659945 658.039643,47.1460144 C656.278507,48.0260343 654.295908,48.4660376 652.091787,48.4660376 C650.082147,48.4660376 648.358853,48.1238128 646.921853,47.4393529 C645.484852,46.754893 644.215341,45.8042685 643.11328,44.5874509 L643.11328,59.1891892 L637.311285,59.1891892 L637.311285,14.9928563 L640.779517,14.9928563 C641.60066,14.9928563 642.108464,15.3948347 642.302946,16.1988034 L642.82156,20.1099833 Z M679.61075,0 L679.61075,48.0097333 L673.841167,48.0097333 L673.841167,0 L679.61075,0 Z M706.740751,33.1472497 C704.082841,33.2341652 701.819329,33.4460187 699.950148,33.7828164 C698.080966,34.1196141 696.557553,34.5596175 695.37986,35.1028396 C694.202168,35.6460618 693.348624,36.2870543 692.819203,37.0258364 C692.289782,37.7646185 692.025075,38.5903038 692.025075,39.502917 C692.025075,40.3720724 692.165532,41.1217078 692.446449,41.7518455 C692.727367,42.3819831 693.110921,42.8980364 693.597124,43.3000208 C694.083328,43.7020052 694.655958,43.9953408 695.315034,44.1800363 C695.974109,44.3647318 696.681794,44.4570782 697.43811,44.4570782 C698.453735,44.4570782 699.382909,44.3538676 700.225661,44.1474431 C701.068413,43.9410187 701.862533,43.642251 702.608045,43.2511311 C703.353556,42.8600111 704.066644,42.3928471 704.747328,41.849625 C705.428013,41.3064028 706.09248,40.6871388 706.740751,39.9918145 L706.740751,33.1472497 Z M688.103056,19.653679 C689.918215,17.8936393 691.873802,16.5790614 693.969878,15.7099059 C696.065954,14.8407505 698.38889,14.4061793 700.938756,14.4061793 C702.775523,14.4061793 704.406981,14.7103791 705.833177,15.318788 C707.259373,15.9271968 708.458656,16.7746106 709.431062,17.8610549 C710.403468,18.9474992 711.138164,20.2620771 711.635172,21.804828 C712.13218,23.3475789 712.38068,25.0424065 712.38068,26.8893618 L712.38068,48.0097333 L709.820023,48.0097333 C709.258188,48.0097333 708.826014,47.9173869 708.523487,47.7326914 C708.220961,47.5479959 707.983265,47.1840425 707.810393,46.6408203 L707.162125,43.5118764 C706.297764,44.3158452 705.455025,45.0274555 704.633881,45.6467288 C703.812738,46.266002 702.94839,46.7874875 702.040811,47.2112007 C701.133231,47.634914 700.166242,47.9608424 699.139813,48.1889957 C698.113384,48.417149 696.973525,48.531224 695.720201,48.531224 C694.445268,48.531224 693.245985,48.3519633 692.122315,47.9934367 C690.998646,47.6349101 690.020852,47.0971282 689.188904,46.380075 C688.356957,45.6630218 687.697891,44.7558544 687.211688,43.6585457 C686.725485,42.5612369 686.482387,41.2629555 686.482387,39.7636623 C686.482387,38.4599292 686.83893,37.2051049 687.552028,35.9991517 C688.265126,34.7931985 689.421192,33.7230669 691.02026,32.7887248 C692.619329,31.8543828 694.704569,31.088451 697.276043,30.4909067 C699.847518,29.8933623 703.002389,29.5511375 706.740751,29.4642219 L706.740751,26.8893618 C706.740751,24.3253533 706.189729,22.3860793 705.087669,21.0714817 C703.985608,19.7568841 702.37576,19.0995952 700.258075,19.0995952 C698.831879,19.0995952 697.637998,19.2788558 696.676396,19.6373824 C695.714794,19.995909 694.882859,20.3978874 694.180565,20.8433296 C693.478272,21.2887717 692.873228,21.6907501 692.365416,22.0492767 C691.857604,22.4078033 691.355201,22.5870639 690.858194,22.5870639 C690.469231,22.5870639 690.134296,22.4838533 689.853379,22.2774289 C689.572461,22.0710044 689.334766,21.8156939 689.140284,21.5114895 L688.103056,19.653679 Z M748.716082,14.9928563 L730.402521,57.7550899 C730.20804,58.1896676 729.964942,58.5373246 729.67322,58.7980712 C729.381498,59.0588178 728.933117,59.1891892 728.328064,59.1891892 L724.049498,59.1891892 L730.045974,46.0867365 L716.49718,14.9928563 L721.488841,14.9928563 C721.985848,14.9928563 722.380207,15.1177955 722.671929,15.3676777 C722.963651,15.6175599 723.163532,15.894599 723.271577,16.1988034 L732.055604,36.9932432 C732.401348,37.9058565 732.693066,38.8619131 732.930765,39.8614418 C733.233291,38.8401842 733.557422,37.8732633 733.903166,36.9606501 L742.427886,16.1988034 C742.55754,15.8511413 742.77903,15.5632378 743.092361,15.3350845 C743.405691,15.1069312 743.756833,14.9928563 744.145795,14.9928563 L748.716082,14.9928563 Z M774.873683,27.89975 C774.873683,26.552559 774.684607,25.3194633 774.306449,24.2004256 C773.92829,23.081388 773.377268,22.1144671 772.653366,21.2996339 C771.929463,20.4848007 771.048909,19.8546724 770.011675,19.4092303 C768.974442,18.9637881 767.796767,18.7410704 766.478616,18.7410704 C763.712661,18.7410704 761.524779,19.5504592 759.914906,21.1692612 C758.305034,22.7880632 757.305631,25.031537 756.916668,27.89975 L774.873683,27.89975 Z M779.54121,43.3815038 C778.828112,44.2506592 777.974568,45.0057266 776.980553,45.6467288 C775.986537,46.2877309 774.922308,46.8146485 773.787834,47.2274973 C772.65336,47.6403462 771.481088,47.9499781 770.270982,48.1564025 C769.060877,48.362827 767.861593,48.4660376 766.673097,48.4660376 C764.404149,48.4660376 762.313506,48.0803557 760.401107,47.3089802 C758.488708,46.5376048 756.835642,45.4077197 755.441859,43.919291 C754.048077,42.4308623 752.96224,40.5893668 752.184314,38.3947494 C751.406389,36.2001319 751.017433,33.6796189 751.017433,30.8331349 C751.017433,28.529873 751.368574,26.3787456 752.070868,24.3796881 C752.773161,22.3806306 753.783368,20.6477779 755.101519,19.1810781 C756.41967,17.7143783 758.029518,16.5627646 759.931113,15.7262025 C761.832708,14.8896404 763.97197,14.4713656 766.348963,14.4713656 C768.315385,14.4713656 770.135918,14.8027262 771.810618,15.4654572 C773.485318,16.1281882 774.933101,17.0842449 776.154011,18.3336558 C777.374922,19.5830667 778.331107,21.1257945 779.022596,22.9618853 C779.714085,24.7979762 780.059824,26.8893501 780.059824,29.2360698 C780.059824,30.148683 779.962585,30.7570827 779.768104,31.0612871 C779.573622,31.3654915 779.206274,31.5175914 778.666049,31.5175914 L756.722188,31.5175914 C756.787015,33.6035644 757.073331,35.4178992 757.581143,36.9606501 C758.088955,38.503401 758.79664,39.7908182 759.704219,40.8229402 C760.611799,41.8550623 761.692234,42.6264262 762.945558,43.137055 C764.198881,43.6476838 765.603447,43.9029944 767.159298,43.9029944 C768.607103,43.9029944 769.855005,43.7345981 770.903043,43.3978003 C771.951081,43.0610026 772.853245,42.6970492 773.609561,42.3059293 C774.365877,41.9148093 774.997931,41.550856 775.505744,41.2140582 C776.013556,40.8772605 776.451132,40.7088642 776.818486,40.7088642 C777.293884,40.7088642 777.661232,40.8935569 777.920541,41.262948 L779.54121,43.3815038 Z M792.603803,21.609269 C793.641037,19.3494648 794.91595,17.5840193 796.428583,16.3128795 C797.941215,15.0417397 799.788759,14.4061793 801.971271,14.4061793 C802.66276,14.4061793 803.327228,14.4822293 803.964694,14.6343315 C804.60216,14.7864337 805.169389,15.0254478 805.666397,15.3513811 L805.245023,19.6862722 C805.115369,20.2294943 804.791238,20.5011013 804.272621,20.5011013 C803.970095,20.5011013 803.527116,20.4359156 802.943673,20.3055423 C802.360229,20.175169 801.701163,20.1099833 800.966456,20.1099833 C799.929223,20.1099833 799.005451,20.2620833 798.195112,20.5662877 C797.384773,20.8704921 796.660882,21.3213597 796.023415,21.918904 C795.385949,22.5164484 794.813318,23.2552194 794.305506,24.1352393 C793.797694,25.0152592 793.338509,26.0202051 792.927937,27.1501072 L792.927937,48.0097333 L787.125942,48.0097333 L787.125942,14.9928563 L790.432107,14.9928563 C791.058769,14.9928563 791.490943,15.1123634 791.728642,15.3513811 C791.966341,15.5903989 792.128407,16.0032415 792.214843,16.5899214 L792.603803,21.609269 Z" id="to-add-player" fill="#FFFFFF"></path>
                <g id="Oval-Copy-2">
                    <use fill="black" fill-opacity="1" filter="url(#filter-2)" xlink:href="#path-1"></use>
                    <use fill="#FF2121" fill-rule="evenodd" xlink:href="#path-1"></use>
                    <use fill="black" fill-opacity="1" filter="url(#filter-3)" xlink:href="#path-1"></use>
                    <use stroke="#000000" stroke-width="7.93914502" xlink:href="#path-1"></use>
                </g>
                <path d="M13.7004006,30.9553317 C15.4925817,30.9553317 17.0742119,30.7157392 18.4453384,30.2365471 C19.8164649,29.757355 20.9716487,29.0875851 21.9109244,28.2272174 C22.8502,27.3668497 23.5573452,26.3376912 24.0323812,25.1397108 C24.5074172,23.9417305 24.7449316,22.6239719 24.7449316,21.1863955 C24.7449316,18.2023355 23.8326603,15.8717542 22.0080903,14.1945817 C20.1835204,12.5174092 17.4143182,11.6788356 13.7004006,11.6788356 L6.2510102,11.6788356 L6.2510102,30.9553317 L13.7004006,30.9553317 Z M13.7004006,6.68001542 C16.6369866,6.68001542 19.1902666,7.02306828 21.3603172,7.70918428 C23.5303679,8.39530028 25.3279202,9.37000602 26.7530281,10.6333307 C28.178136,11.8966554 29.2415529,13.4213348 29.9433105,15.2074145 C30.6450682,16.9934943 30.9959418,18.986468 30.9959418,21.1863955 C30.9959418,23.3645416 30.6180779,25.3575153 29.8623389,27.1653765 C29.1065999,28.9732378 27.9999986,30.5305888 26.5425019,31.8374764 C25.0850052,33.1443641 23.2820548,34.1626321 21.1335967,34.892311 C18.9851386,35.6219899 16.5074313,35.9868239 13.7004006,35.9868239 L6.2510102,35.9868239 L6.2510102,53.4990305 L0,53.4990305 L0,6.68001542 L13.7004006,6.68001542 Z M42.396748,27.0346884 C43.4331901,24.7694165 44.707131,22.9996994 46.2186091,21.725484 C47.7300872,20.4512686 49.576222,19.8141704 51.7570689,19.8141704 C52.4480303,19.8141704 53.1119911,19.8904044 53.7489712,20.0428746 C54.3859512,20.1953448 54.952747,20.4349373 55.4493755,20.7616592 L55.028323,25.1070388 C54.8987677,25.6515753 54.5748844,25.9238395 54.0566634,25.9238395 C53.7543678,25.9238395 53.3117272,25.8584961 52.7287286,25.7278073 C52.1457299,25.5971186 51.4871672,25.5317752 50.7530207,25.5317752 C49.7165786,25.5317752 48.7935112,25.6842431 47.9837908,25.9891836 C47.1740704,26.294124 46.450731,26.7460825 45.8137509,27.3450727 C45.1767709,27.9440628 44.6045771,28.6846214 44.0971523,29.5667705 C43.5897275,30.4489197 43.1308928,31.4562971 42.7206345,32.5889331 L42.7206345,53.4990305 L36.9230655,53.4990305 L36.9230655,20.4022669 L40.2267081,20.4022669 C40.8528919,20.4022669 41.2847363,20.5220631 41.5222543,20.7616592 C41.7597723,21.0012553 41.9217139,21.4150968 42.0080841,22.0031962 L42.396748,27.0346884 Z M81.133578,33.3403897 C81.133578,31.9899391 80.9446461,30.7538598 80.5667766,29.6321146 C80.1889071,28.5103694 79.6383055,27.5411089 78.9149552,26.7243042 C78.191605,25.9074994 77.3117221,25.2758465 76.2752799,24.8293266 C75.2388378,24.3828066 74.0620618,24.15955 72.7449167,24.15955 C69.9810711,24.15955 67.7948588,24.9708973 66.1862143,26.5936161 C64.5775697,28.2163349 63.5789296,30.4652369 63.1902638,33.3403897 L81.133578,33.3403897 Z M85.7975442,48.8596027 C85.0849902,49.7308611 84.2320976,50.4877555 83.2388405,51.1303086 C82.2455835,51.7728616 81.1821667,52.3010541 80.0485581,52.7149019 C78.9149496,53.1287496 77.7435716,53.4391308 76.5343892,53.6460547 C75.3252067,53.8529785 74.1268385,53.9564389 72.9392486,53.9564389 C70.6720315,53.9564389 68.5829842,53.5698238 66.6720441,52.796582 C64.7611039,52.0233401 63.1092991,50.8907212 61.71658,49.3986911 C60.3238609,47.9066611 59.2388519,46.06071 58.4615203,43.8607825 C57.6841887,41.660855 57.2955288,39.1342435 57.2955288,36.2808722 C57.2955288,33.9720373 57.6464023,31.8157051 58.34816,29.8118107 C59.0499177,27.8079164 60.059354,26.070871 61.3764991,24.6006224 C62.6936443,23.1303738 64.3022647,21.9759737 66.2024086,21.1373875 C68.1025524,20.2988013 70.2401822,19.8795144 72.6153621,19.8795144 C74.5802835,19.8795144 76.3994281,20.2116767 78.0728502,20.8760113 C79.7462724,21.5403458 81.1929511,22.4987157 82.4129299,23.7511497 C83.6329086,25.0035837 84.5883643,26.5500442 85.2793257,28.3905776 C85.9702871,30.231111 86.3157627,32.3275451 86.3157627,34.6799428 C86.3157627,35.5947642 86.2185977,36.2046359 86.0242648,36.5095763 C85.8299319,36.8145168 85.4628641,36.9669847 84.9230505,36.9669847 L62.9959318,36.9669847 C63.0607095,39.0580049 63.3468064,40.8767296 63.8542312,42.4232133 C64.361656,43.969697 65.0688012,45.2602291 65.975688,46.2948485 C66.8825748,47.3294679 67.9621858,48.1026981 69.2145534,48.6145625 C70.4669209,49.1264268 71.8704152,49.3823551 73.4250784,49.3823551 C74.8717788,49.3823551 76.1187295,49.2135513 77.1659679,48.8759387 C78.2132063,48.538326 79.1146815,48.1734921 79.8704205,47.7814258 C80.6261596,47.3893595 81.257732,47.0245255 81.7651568,46.6869128 C82.2725816,46.3493002 82.709824,46.1804964 83.0768973,46.1804964 C83.5519332,46.1804964 83.919001,46.3656361 84.1781115,46.7359209 L85.7975442,48.8596027 Z M112.485795,25.8584954 C112.226684,26.3376876 111.827228,26.57728 111.287415,26.57728 C110.963527,26.57728 110.596459,26.4574838 110.186201,26.2178877 C109.775942,25.9782917 109.273923,25.7114728 108.680128,25.4174231 C108.086333,25.1233734 107.379188,24.8511092 106.558671,24.6006224 C105.738155,24.3501356 104.766505,24.2248941 103.643692,24.2248941 C102.672028,24.2248941 101.797543,24.3501356 101.020212,24.6006224 C100.24288,24.8511092 99.5789192,25.194162 99.0283093,25.6297913 C98.4776994,26.0654205 98.0566512,26.5718318 97.7651518,27.1490405 C97.4736525,27.7262492 97.327905,28.3524568 97.327905,29.0276821 C97.327905,29.8771591 97.5708175,30.5850459 98.0566497,31.1513639 C98.5424819,31.7176818 99.1848505,32.2077573 99.9837746,32.6216051 C100.782699,33.0354528 101.689572,33.4002868 102.704422,33.716118 C103.719271,34.0319492 104.761096,34.3695568 105.829927,34.7289509 C106.898758,35.088345 107.940582,35.4858506 108.955432,35.9214799 C109.970281,36.3571091 110.877155,36.9016374 111.676079,37.5550812 C112.475003,38.208525 113.117371,39.0089817 113.603204,39.9564752 C114.089036,40.9039688 114.331948,42.042033 114.331948,43.3707021 C114.331948,44.8954043 114.062046,46.3057327 113.522232,47.6017296 C112.982418,48.8977265 112.183506,50.0194549 111.125472,50.9669484 C110.067437,51.914442 108.771904,52.6604458 107.238833,53.2049823 C105.705762,53.7495188 103.9352,54.021783 101.927094,54.021783 C99.6382842,54.021783 97.5654311,53.6460584 95.7084723,52.894598 C93.8515135,52.1431377 92.2752815,51.1793225 90.9797288,50.0031236 L92.3400523,47.7814258 C92.5127926,47.4982668 92.7179187,47.2804554 92.9554367,47.1279852 C93.1929547,46.975515 93.4952458,46.899281 93.862319,46.899281 C94.2509848,46.899281 94.661237,47.051749 95.0930879,47.3566894 C95.5249387,47.6616299 96.0485501,47.9992374 96.6639376,48.3695223 C97.2793251,48.7398071 98.0296547,49.0774147 98.914949,49.3823551 C99.8002433,49.6872955 100.901447,49.8397635 102.218592,49.8397635 C103.341404,49.8397635 104.32385,49.6927408 105.165959,49.3986911 C106.008068,49.1046414 106.709816,48.7071357 107.271222,48.2061621 C107.832628,47.7051885 108.248278,47.1279885 108.518185,46.4745447 C108.788092,45.8211009 108.923043,45.1241046 108.923043,44.3835349 C108.923043,43.4687136 108.680131,42.7118192 108.194298,42.112829 C107.708466,41.5138389 107.066098,41.0019822 106.267173,40.5772437 C105.468249,40.1525053 104.555978,39.782226 103.530332,39.4663948 C102.504686,39.1505636 101.457464,38.8184013 100.388633,38.469898 C99.3198019,38.1213946 98.2725792,37.7238889 97.2469333,37.277369 C96.2212875,36.830849 95.3090162,36.2699849 94.5100921,35.5947596 C93.711168,34.9195343 93.0687994,34.0864059 92.5829672,33.0953495 C92.0971349,32.104293 91.8542225,30.9008854 91.8542225,29.4850905 C91.8542225,28.2217658 92.1133291,27.0074676 92.6315502,25.8421594 C93.1497712,24.6768513 93.9054989,23.653138 94.8987559,22.7709889 C95.892013,21.8888397 97.1119734,21.1863982 98.5586738,20.6636431 C100.005374,20.1408881 101.657179,19.8795144 103.514138,19.8795144 C105.673392,19.8795144 107.611294,20.2225673 109.327901,20.9086833 C111.044508,21.5947993 112.528974,22.5368333 113.781341,23.7348137 L112.485795,25.8584954 Z M140.534369,25.8584954 C140.275259,26.3376876 139.875803,26.57728 139.335989,26.57728 C139.012101,26.57728 138.645033,26.4574838 138.234775,26.2178877 C137.824517,25.9782917 137.322497,25.7114728 136.728702,25.4174231 C136.134907,25.1233734 135.427762,24.8511092 134.607246,24.6006224 C133.786729,24.3501356 132.815079,24.2248941 131.692267,24.2248941 C130.720602,24.2248941 129.846117,24.3501356 129.068786,24.6006224 C128.291454,24.8511092 127.627493,25.194162 127.076884,25.6297913 C126.526274,26.0654205 126.105225,26.5718318 125.813726,27.1490405 C125.522227,27.7262492 125.376479,28.3524568 125.376479,29.0276821 C125.376479,29.8771591 125.619392,30.5850459 126.105224,31.1513639 C126.591056,31.7176818 127.233425,32.2077573 128.032349,32.6216051 C128.831273,33.0354528 129.738146,33.4002868 130.752996,33.716118 C131.767845,34.0319492 132.80967,34.3695568 133.878501,34.7289509 C134.947332,35.088345 135.989156,35.4858506 137.004006,35.9214799 C138.018856,36.3571091 138.925729,36.9016374 139.724653,37.5550812 C140.523577,38.208525 141.165946,39.0089817 141.651778,39.9564752 C142.13761,40.9039688 142.380523,42.042033 142.380523,43.3707021 C142.380523,44.8954043 142.11062,46.3057327 141.570806,47.6017296 C141.030993,48.8977265 140.23208,50.0194549 139.174046,50.9669484 C138.116011,51.914442 136.820478,52.6604458 135.287407,53.2049823 C133.754337,53.7495188 131.983775,54.021783 129.975668,54.021783 C127.686858,54.021783 125.614005,53.6460584 123.757047,52.894598 C121.900088,52.1431377 120.323856,51.1793225 119.028303,50.0031236 L120.388627,47.7814258 C120.561367,47.4982668 120.766493,47.2804554 121.004011,47.1279852 C121.241529,46.975515 121.54382,46.899281 121.910893,46.899281 C122.299559,46.899281 122.709811,47.051749 123.141662,47.3566894 C123.573513,47.6616299 124.097124,47.9992374 124.712512,48.3695223 C125.327899,48.7398071 126.078229,49.0774147 126.963523,49.3823551 C127.848818,49.6872955 128.950021,49.8397635 130.267166,49.8397635 C131.389978,49.8397635 132.372424,49.6927408 133.214534,49.3986911 C134.056643,49.1046414 134.75839,48.7071357 135.319796,48.2061621 C135.881202,47.7051885 136.296852,47.1279885 136.566759,46.4745447 C136.836666,45.8211009 136.971617,45.1241046 136.971617,44.3835349 C136.971617,43.4687136 136.728705,42.7118192 136.242873,42.112829 C135.75704,41.5138389 135.114672,41.0019822 134.315748,40.5772437 C133.516824,40.1525053 132.604552,39.782226 131.578906,39.4663948 C130.553261,39.1505636 129.506038,38.8184013 128.437207,38.469898 C127.368376,38.1213946 126.321153,37.7238889 125.295508,37.277369 C124.269862,36.830849 123.35759,36.2699849 122.558666,35.5947596 C121.759742,34.9195343 121.117374,34.0864059 120.631541,33.0953495 C120.145709,32.104293 119.902797,30.9008854 119.902797,29.4850905 C119.902797,28.2217658 120.161903,27.0074676 120.680124,25.8421594 C121.198346,24.6768513 121.954073,23.653138 122.94733,22.7709889 C123.940587,21.8888397 125.160548,21.1863982 126.607248,20.6636431 C128.053949,20.1408881 129.705753,19.8795144 131.562712,19.8795144 C133.721967,19.8795144 135.659868,20.2225673 137.376476,20.9086833 C139.093083,21.5947993 140.577548,22.5368333 141.829915,23.7348137 L140.534369,25.8584954 Z M179.886584,19.8795144 C182.283356,19.8795144 184.442578,20.2824654 186.364315,21.0883795 C188.286051,21.8942935 189.92706,23.037803 191.28739,24.5189423 C192.64772,26.0000816 193.689545,27.7915799 194.412895,29.8934908 C195.136245,31.9954017 195.497915,34.3423189 195.497915,36.9343127 C195.497915,39.548088 195.136245,41.9004504 194.412895,43.9914706 C193.689545,46.0824908 192.64772,47.8685438 191.28739,49.3496831 C189.92706,50.8308224 188.286051,51.9688866 186.364315,52.7639099 C184.442578,53.5589332 182.283356,53.9564389 179.886584,53.9564389 C177.468219,53.9564389 175.292803,53.5589332 173.36027,52.7639099 C171.427737,51.9688866 169.781331,50.8308224 168.421,49.3496831 C167.06067,47.8685438 166.018845,46.0824908 165.295495,43.9914706 C164.572145,41.9004504 164.210475,39.548088 164.210475,36.9343127 C164.210475,34.3423189 164.572145,31.9954017 165.295495,29.8934908 C166.018845,27.7915799 167.06067,26.0000816 168.421,24.5189423 C169.781331,23.037803 171.427737,21.8942935 173.36027,21.0883795 C175.292803,20.2824654 177.468219,19.8795144 179.886584,19.8795144 Z M179.886584,49.4150271 C183.125465,49.4150271 185.543794,48.3205252 187.141642,46.1314884 C188.739491,43.9424516 189.538403,40.8876476 189.538403,36.9669847 C189.538403,33.0245404 188.739491,29.9534005 187.141642,27.753473 C185.543794,25.5535455 183.125465,24.4535983 179.886584,24.4535983 C178.24555,24.4535983 176.815066,24.736753 175.595087,25.303071 C174.375108,25.869389 173.360274,26.6861815 172.550554,27.753473 C171.740833,28.8207646 171.136251,30.1330779 170.736789,31.6904523 C170.337327,33.2478267 170.137599,35.0066533 170.137599,36.9669847 C170.137599,40.8876476 170.941909,43.9424516 172.550554,46.1314884 C174.159198,48.3205252 176.604517,49.4150271 179.886584,49.4150271 Z M212.275238,54.021783 C209.684132,54.021783 207.69225,53.292115 206.299531,51.8327571 C204.906812,50.3733993 204.210463,48.2715199 204.210463,45.5270559 L204.210463,25.270399 L200.259047,25.270399 C199.913566,25.270399 199.622071,25.1669386 199.384553,24.9600147 C199.147035,24.7530908 199.028278,24.4318191 199.028278,23.9961899 L199.028278,21.676476 L204.404795,20.9903634 L205.73273,10.7640188 C205.797507,10.4372969 205.943255,10.170478 206.169976,9.96355416 C206.396698,9.75663029 206.693591,9.6531699 207.060664,9.6531699 L209.975643,9.6531699 L209.975643,21.0557074 L219.465519,21.0557074 L219.465519,25.270399 L209.975643,25.270399 L209.975643,45.1349916 C209.975643,46.529005 210.310323,47.5636089 210.979692,48.2388341 C211.64906,48.9140594 212.512749,49.251667 213.570784,49.251667 C214.175375,49.251667 214.698986,49.1699877 215.141634,49.0066268 C215.584281,48.8432658 215.967543,48.6635715 216.291431,48.4675383 C216.615319,48.2715052 216.89062,48.0918108 217.117341,47.9284499 C217.344063,47.7650889 217.543791,47.6834097 217.716532,47.6834097 C218.018827,47.6834097 218.28873,47.8685493 218.526248,48.2388341 L220.210458,51.0159565 C219.217201,51.9525593 218.018833,52.6876725 216.615317,53.2213183 C215.211802,53.7549641 213.765123,54.021783 212.275238,54.021783 Z M231.2226,24.8129906 C232.626116,23.3100698 234.180755,22.1121074 235.886566,21.2190676 C237.592377,20.3260277 239.557269,19.8795144 241.781301,19.8795144 C243.573483,19.8795144 245.155113,20.179005 246.526239,20.7779952 C247.897366,21.3769854 249.041753,22.2264496 249.959437,23.3264133 C250.87712,24.4263771 251.573469,25.749581 252.048505,27.2960646 C252.523541,28.8425483 252.761055,30.5523673 252.761055,32.4255729 L252.761055,53.4990305 L246.963486,53.4990305 L246.963486,32.4255729 C246.963486,29.920705 246.39669,27.9767388 245.263082,26.5936161 C244.129473,25.2104933 242.407494,24.5189423 240.097091,24.5189423 C238.39128,24.5189423 236.798854,24.9327839 235.319765,25.7604794 C233.840676,26.5881749 232.474968,27.7099032 231.2226,29.1256982 L231.2226,53.4990305 L225.425031,53.4990305 L225.425031,5.37313433 L231.2226,5.37313433 L231.2226,24.8129906 Z M283.530276,33.3403897 C283.530276,31.9899391 283.341344,30.7538598 282.963475,29.6321146 C282.585605,28.5103694 282.035004,27.5411089 281.311653,26.7243042 C280.588303,25.9074994 279.70842,25.2758465 278.671978,24.8293266 C277.635536,24.3828066 276.45876,24.15955 275.141615,24.15955 C272.377769,24.15955 270.191557,24.9708973 268.582913,26.5936161 C266.974268,28.2163349 265.975628,30.4652369 265.586962,33.3403897 L283.530276,33.3403897 Z M288.194242,48.8596027 C287.481688,49.7308611 286.628796,50.4877555 285.635539,51.1303086 C284.642282,51.7728616 283.578865,52.3010541 282.445256,52.7149019 C281.311648,53.1287496 280.14027,53.4391308 278.931087,53.6460547 C277.721905,53.8529785 276.523537,53.9564389 275.335947,53.9564389 C273.06873,53.9564389 270.979682,53.5698238 269.068742,52.796582 C267.157802,52.0233401 265.505997,50.8907212 264.113278,49.3986911 C262.720559,47.9066611 261.63555,46.06071 260.858219,43.8607825 C260.080887,41.660855 259.692227,39.1342435 259.692227,36.2808722 C259.692227,33.9720373 260.043101,31.8157051 260.744858,29.8118107 C261.446616,27.8079164 262.456052,26.070871 263.773197,24.6006224 C265.090343,23.1303738 266.698963,21.9759737 268.599107,21.1373875 C270.499251,20.2988013 272.63688,19.8795144 275.01206,19.8795144 C276.976982,19.8795144 278.796126,20.2116767 280.469548,20.8760113 C282.142971,21.5403458 283.589649,22.4987157 284.809628,23.7511497 C286.029607,25.0035837 286.985063,26.5500442 287.676024,28.3905776 C288.366985,30.231111 288.712461,32.3275451 288.712461,34.6799428 C288.712461,35.5947642 288.615296,36.2046359 288.420963,36.5095763 C288.22663,36.8145168 287.859562,36.9669847 287.319749,36.9669847 L265.39263,36.9669847 C265.457408,39.0580049 265.743505,40.8767296 266.250929,42.4232133 C266.758354,43.969697 267.465499,45.2602291 268.372386,46.2948485 C269.279273,47.3294679 270.358884,48.1026981 271.611252,48.6145625 C272.863619,49.1264268 274.267113,49.3823551 275.821777,49.3823551 C277.268477,49.3823551 278.515428,49.2135513 279.562666,48.8759387 C280.609905,48.538326 281.51138,48.1734921 282.267119,47.7814258 C283.022858,47.3893595 283.65443,47.0245255 284.161855,46.6869128 C284.66928,46.3493002 285.106522,46.1804964 285.473596,46.1804964 C285.948631,46.1804964 286.315699,46.3656361 286.57481,46.7359209 L288.194242,48.8596027 Z M301.24687,27.0346884 C302.283312,24.7694165 303.557253,22.9996994 305.068731,21.725484 C306.580209,20.4512686 308.426344,19.8141704 310.607191,19.8141704 C311.298152,19.8141704 311.962113,19.8904044 312.599093,20.0428746 C313.236073,20.1953448 313.802869,20.4349373 314.299497,20.7616592 L313.878445,25.1070388 C313.74889,25.6515753 313.425006,25.9238395 312.906785,25.9238395 C312.60449,25.9238395 312.161849,25.8584961 311.578851,25.7278073 C310.995852,25.5971186 310.337289,25.5317752 309.603143,25.5317752 C308.566701,25.5317752 307.643633,25.6842431 306.833913,25.9891836 C306.024192,26.294124 305.300853,26.7460825 304.663873,27.3450727 C304.026893,27.9440628 303.454699,28.6846214 302.947274,29.5667705 C302.43985,30.4489197 301.981015,31.4562971 301.570757,32.5889331 L301.570757,53.4990305 L295.773187,53.4990305 L295.773187,20.4022669 L299.07683,20.4022669 C299.703014,20.4022669 300.134858,20.5220631 300.372376,20.7616592 C300.609894,21.0012553 300.771836,21.4150968 300.858206,22.0031962 L301.24687,27.0346884 Z" id="Press-other" fill="#FFFFFF"></path>
            </g>
        </g>
    </g>
</svg>