<?xml version="1.0" encoding="UTF-8"?>
<svg width="294px" height="272px" viewBox="0 0 294 272" version="1.1" xmlns="http://www.w3.org/2000/svg" xmlns:xlink="http://www.w3.org/1999/xlink">
    <!-- Generator: Sketch 43.2 (39069) - http://www.bohemiancoding.com/sketch -->
    <title>Group 3</title>
    <desc>Created with Sketch.</desc>
    <defs>
        <rect id="path-1" x="0" y="0" width="294" height="272" rx="30"></rect>
        <mask id="mask-2" maskContentUnits="userSpaceOnUse" maskUnits="objectBoundingBox" x="0" y="0" width="294" height="272" fill="white">
            <use xlink:href="#path-1"></use>
        </mask>
    </defs>
    <g id="frontend" stroke="none" stroke-width="1" fill="none" fill-rule="evenodd">
        <g id="GameJoining-2" transform="translate(-831.000000, -216.000000)">
            <g id="Group-3" transform="translate(831.000000, 216.000000)">
                <use id="Rectangle-Copy-2" stroke="#FFFFFF" mask="url(#mask-2)" stroke-width="19.2" stroke-dasharray="23.52000045776367" xlink:href="#path-1"></use>
                <path d="M115.981,93.728 C117.90501,92.1159919 119.997989,90.608007 122.26,89.204 C124.522011,87.799993 126.952987,86.5650053 129.553,85.499 C132.153013,84.4329947 134.947985,83.601003 137.938,83.003 C140.928015,82.404997 144.164983,82.106 147.649,82.106 C152.537024,82.106 156.94398,82.7559935 160.87,84.056 C164.79602,85.3560065 168.136986,87.2149879 170.893,89.633 C173.649014,92.0510121 175.767993,94.962983 177.25,98.369 C178.732007,101.775017 179.473,105.557979 179.473,109.718 C179.473,113.67002 178.927005,117.088986 177.835,119.975 C176.742995,122.861014 175.365008,125.369989 173.701,127.502 C172.036992,129.634011 170.20401,131.479992 168.202,133.04 C166.19999,134.600008 164.302009,136.042993 162.508,137.369 C160.713991,138.695007 159.154007,140.007993 157.828,141.308 C156.501993,142.608006 155.657002,144.063992 155.293,145.676 L153.109,156.596 L136.573,156.596 L134.857,144.038 C134.440998,141.489987 134.700995,139.267009 135.637,137.369 C136.573005,135.470991 137.859992,133.755008 139.498,132.221 C141.136008,130.686992 142.96899,129.231007 144.997,127.853 C147.02501,126.474993 148.922991,124.993008 150.691,123.407 C152.459009,121.820992 153.953994,120.05301 155.176,118.103 C156.398006,116.15299 157.009,113.826014 157.009,111.122 C157.009,108.001984 155.98201,105.519009 153.928,103.673 C151.87399,101.826991 149.053018,100.904 145.465,100.904 C142.708986,100.904 140.408009,101.189997 138.562,101.762 C136.715991,102.334003 135.130007,102.970996 133.804,103.673 C132.477993,104.375004 131.321005,105.011997 130.333,105.584 C129.344995,106.156003 128.357005,106.442 127.369,106.442 C125.132989,106.442 123.469005,105.48001 122.377,103.556 L115.981,93.728 Z M130.333,184.754 C130.333,182.881991 130.683996,181.140008 131.386,179.528 C132.088004,177.915992 133.049994,176.512006 134.272,175.316 C135.494006,174.119994 136.936992,173.171004 138.601,172.469 C140.265008,171.766996 142.08499,171.416 144.061,171.416 C145.98501,171.416 147.778992,171.766996 149.443,172.469 C151.107008,173.171004 152.562994,174.119994 153.811,175.316 C155.059006,176.512006 156.033996,177.915992 156.736,179.528 C157.438004,181.140008 157.789,182.881991 157.789,184.754 C157.789,186.626009 157.438004,188.380992 156.736,190.019 C156.033996,191.657008 155.059006,193.073994 153.811,194.27 C152.562994,195.466006 151.107008,196.401997 149.443,197.078 C147.778992,197.754003 145.98501,198.092 144.061,198.092 C142.08499,198.092 140.265008,197.754003 138.601,197.078 C136.936992,196.401997 135.494006,195.466006 134.272,194.27 C133.049994,193.073994 132.088004,191.657008 131.386,190.019 C130.683996,188.380992 130.333,186.626009 130.333,184.754 Z" id="?" fill="#FFFFFF"></path>
            </g>
        </g>
    </g>
</svg>