<?xml version="1.0" encoding="UTF-8"?>
<svg width="294px" height="272px" viewBox="0 0 294 272" version="1.1" xmlns="http://www.w3.org/2000/svg" xmlns:xlink="http://www.w3.org/1999/xlink">
    <!-- Generator: Sketch 43.1 (39012) - http://www.bohemiancoding.com/sketch -->
    <title>Group 2</title>
    <desc>Created with Sketch.</desc>
    <defs></defs>
    <g id="frontend" stroke="none" stroke-width="1" fill="none" fill-rule="evenodd">
        <g id="2-waiting-for-players-copy-13" transform="translate(-146.000000, -237.000000)">
            <g id="Group-2" transform="translate(146.000000, 237.000000)">
                <rect id="Rectangle-Copy" stroke="#FFFFFF" stroke-width="9.6" x="4.8" y="4.8" width="284.4" height="262.4" rx="31.2"></rect>
                <g id="Group" transform="translate(62.400000, 99.453744)" fill-rule="nonzero" fill="#FFFFFF">
                    <path d="M125.986722,38.9057247 C123.856722,25.4387281 115.225591,14.1565714 103.412426,8.3309501 L105.168287,29.17039 C105.322017,30.9694517 103.9866,32.5422396 102.1974,32.6924705 C102.104791,32.7054535 102.01033,32.7054535 101.921426,32.7054535 C100.245209,32.7054535 98.8264435,31.4219992 98.6801217,29.719382 L96.3037826,1.55015689 C88.832113,-0.130203787 81.567887,-0.130203787 74.0906609,1.55015689 L71.7235826,29.719382 C71.5698522,31.5128796 69.9899478,32.8853596 68.2044522,32.6924705 C66.4134,32.5422396 65.081687,30.967597 65.2354174,29.17039 L66.9875739,8.3309501 C55.1762609,14.1565714 46.5432783,25.4387281 44.4151304,38.9057247 L35.7469565,38.9057247 L35.7469565,47.5319471 L35.7469565,51.9906525 C52.0942435,53.3445855 68.7212087,54.0475178 85.2,54.0475178 C101.676939,54.0475178 118.307609,53.3445855 134.653043,51.9906525 L134.653043,47.5319471 L134.653043,38.9057247 L125.986722,38.9057247 Z" id="Shape"></path>
                    <path d="M85.2,63.0520996 C72.686713,63.0520996 60.0011739,62.6477744 47.3378609,61.8558164 C47.3563826,63.3599803 47.4045391,64.8233407 47.5008522,66.2088037 C48.4139739,78.9951243 56.8080261,97.8759982 63.3332348,108.332812 C69.9936522,119.002917 85.1740696,118.876797 85.2,118.876797 C85.2259304,118.876797 100.404496,119.002917 107.061209,108.332812 C113.590122,97.8759982 121.987878,78.9951243 122.901,66.2088037 C122.997313,64.8233407 123.04547,63.3599803 123.063991,61.8558164 C110.400678,62.6477744 97.7151391,63.0520996 85.2,63.0520996 Z" id="Shape"></path>
                    <path d="M27.1269391,119.307088 C26.3230957,119.570456 25.5340696,119.815277 24.7209652,120.093482 C15.3193304,123.296554 8.30885217,131.824477 4.83973043,141.366923 C2.49487826,147.813869 1.21317391,153.939952 0.500086957,158.760325 C0.368582609,159.682112 0.253747826,160.550113 0.157434783,161.368037 C0.3408,165.420562 3.6561913,168.660728 7.7532,168.660728 L27.125087,168.660728 L27.125087,119.307088 L27.1269391,119.307088 Z" id="Shape"></path>
                    <path d="M126.034878,114.564613 C121.90453,113.631698 118.18907,112.926911 115.094087,112.418722 C114.96073,112.630158 114.818113,112.9028 114.688461,113.103108 C105.725791,127.46778 87.298513,127.883234 85.2259304,127.883234 L85.2,127.883234 L85.1740696,127.883234 C83.101487,127.883234 64.6742087,127.46778 55.7115391,113.103108 C55.5837391,112.9028 55.4392696,112.630158 55.3077652,112.418722 C52.2127826,112.926911 48.4973217,113.631698 44.3669739,114.564613 L44.3669739,168.660728 L85.2,168.660728 L126.034878,168.660728 L126.034878,114.564613 Z" id="Shape"></path>
                    <path d="M169.898061,158.760325 C169.184974,153.939952 167.905122,147.813869 165.56027,141.366923 C162.091148,131.824477 155.076965,123.296554 145.677183,120.093482 C144.86593,119.817132 144.076904,119.570456 143.271209,119.307088 L143.271209,168.660728 L162.644948,168.660728 C166.740104,168.660728 170.055496,165.420562 170.240713,161.368037 C170.1444,160.550113 170.029565,159.682112 169.898061,158.760325 Z" id="Shape"></path>
                </g>
            </g>
        </g>
    </g>
</svg>