<?xml version="1.0" encoding="UTF-8"?>
<svg width="294px" height="424px" viewBox="0 0 294 424" version="1.1" xmlns="http://www.w3.org/2000/svg" xmlns:xlink="http://www.w3.org/1999/xlink">
    <!-- Generator: Sketch 43.1 (39012) - http://www.bohemiancoding.com/sketch -->
    <title>Group 5</title>
    <desc>Created with Sketch.</desc>
    <defs>
        <rect id="path-1" x="0" y="0" width="294" height="272" rx="30"></rect>
        <mask id="mask-2" maskContentUnits="userSpaceOnUse" maskUnits="objectBoundingBox" x="0" y="0" width="294" height="272" fill="white">
            <use xlink:href="#path-1"></use>
        </mask>
        <ellipse id="path-3" cx="235.511621" cy="356.5" rx="18.5" ry="18.4895184"></ellipse>
        <filter x="-103.9%" y="-104.0%" width="307.8%" height="308.0%" filterUnits="objectBoundingBox" id="filter-4">
            <feMorphology radius="5.4503534" operator="dilate" in="SourceAlpha" result="shadowSpreadOuter1"></feMorphology>
            <feOffset dx="0" dy="0" in="shadowSpreadOuter1" result="shadowOffsetOuter1"></feOffset>
            <feGaussianBlur stdDeviation="9" in="shadowOffsetOuter1" result="shadowBlurOuter1"></feGaussianBlur>
            <feComposite in="shadowBlurOuter1" in2="SourceAlpha" operator="out" result="shadowBlurOuter1"></feComposite>
            <feColorMatrix values="0 0 0 0 1   0 0 0 0 0.264125631   0 0 0 0 0.264125631  0 0 0 0.5 0" type="matrix" in="shadowBlurOuter1"></feColorMatrix>
        </filter>
        <filter x="-106.6%" y="-106.7%" width="313.2%" height="313.4%" filterUnits="objectBoundingBox" id="filter-5">
            <feGaussianBlur stdDeviation="9" in="SourceAlpha" result="shadowBlurInner1"></feGaussianBlur>
            <feOffset dx="0" dy="8" in="shadowBlurInner1" result="shadowOffsetInner1"></feOffset>
            <feComposite in="shadowOffsetInner1" in2="SourceAlpha" operator="arithmetic" k2="-1" k3="1" result="shadowInnerInner1"></feComposite>
            <feColorMatrix values="0 0 0 0 1   0 0 0 0 1   0 0 0 0 1  0 0 0 0.5 0" type="matrix" in="shadowInnerInner1"></feColorMatrix>
        </filter>
    </defs>
    <g id="frontend" stroke="none" stroke-width="1" fill="none" fill-rule="evenodd">
        <g id="GameJoining-2" transform="translate(-831.000000, -236.000000)">
            <g id="Group-5" transform="translate(831.000000, 236.000000)">
                <g id="Group-4">
                    <g id="Group-8">
                        <path d="M25.7240861,417.32 C24.1240781,417.32 22.8940904,416.873338 22.0340861,415.98 C21.1740818,415.086662 20.7440861,413.800008 20.7440861,412.12 L20.7440861,399.72 L18.3040861,399.72 C18.0907517,399.72 17.9107535,399.656667 17.7640861,399.53 C17.6174187,399.403333 17.5440861,399.206668 17.5440861,398.94 L17.5440861,397.52 L20.8640861,397.1 L21.6840861,390.84 C21.7240863,390.639999 21.8140854,390.476667 21.9540861,390.35 C22.0940868,390.223333 22.2774183,390.16 22.5040861,390.16 L24.3040861,390.16 L24.3040861,397.14 L30.1640861,397.14 L30.1640861,399.72 L24.3040861,399.72 L24.3040861,411.88 C24.3040861,412.733338 24.5107507,413.366665 24.9240861,413.78 C25.3374215,414.193335 25.8707495,414.4 26.5240861,414.4 C26.8974213,414.4 27.2207514,414.35 27.4940861,414.25 C27.7674208,414.15 28.0040851,414.040001 28.2040861,413.92 C28.4040871,413.799999 28.5740854,413.69 28.7140861,413.59 C28.8540868,413.49 28.9774189,413.44 29.0840861,413.44 C29.2707537,413.44 29.4374187,413.553332 29.5840861,413.78 L30.6240861,415.48 C30.0107497,416.053336 29.2707571,416.503332 28.4040861,416.83 C27.5374151,417.156668 26.6440907,417.32 25.7240861,417.32 Z M42.2840861,396.42 C43.7640935,396.42 45.0974135,396.666664 46.2840861,397.16 C47.4707587,397.653336 48.4840819,398.353329 49.3240861,399.26 C50.1640903,400.166671 50.8074172,401.263327 51.2540861,402.55 C51.700755,403.836673 51.9240861,405.273325 51.9240861,406.86 C51.9240861,408.460008 51.700755,409.899994 51.2540861,411.18 C50.8074172,412.460006 50.1640903,413.553329 49.3240861,414.46 C48.4840819,415.366671 47.4707587,416.063331 46.2840861,416.55 C45.0974135,417.036669 43.7640935,417.28 42.2840861,417.28 C40.7907453,417.28 39.4474254,417.036669 38.2540861,416.55 C37.0607468,416.063331 36.0440903,415.366671 35.2040861,414.46 C34.3640819,413.553329 33.720755,412.460006 33.2740861,411.18 C32.8274172,409.899994 32.6040861,408.460008 32.6040861,406.86 C32.6040861,405.273325 32.8274172,403.836673 33.2740861,402.55 C33.720755,401.263327 34.3640819,400.166671 35.2040861,399.26 C36.0440903,398.353329 37.0607468,397.653336 38.2540861,397.16 C39.4474254,396.666664 40.7907453,396.42 42.2840861,396.42 Z M42.2840861,414.5 C44.2840961,414.5 45.7774145,413.830007 46.7640861,412.49 C47.7507577,411.149993 48.2440861,409.280012 48.2440861,406.88 C48.2440861,404.466655 47.7507577,402.586673 46.7640861,401.24 C45.7774145,399.893327 44.2840961,399.22 42.2840861,399.22 C41.2707477,399.22 40.3874232,399.393332 39.6340861,399.74 C38.880749,400.086668 38.2540886,400.586663 37.7540861,401.24 C37.2540836,401.893337 36.880754,402.696662 36.6340861,403.65 C36.3874182,404.603338 36.2640861,405.679994 36.2640861,406.88 C36.2640861,409.280012 36.7607478,411.149993 37.7540861,412.49 C38.7474244,413.830007 40.2574093,414.5 42.2840861,414.5 Z M77.6440861,407.88 C76.0040779,407.933334 74.6074252,408.063332 73.4540861,408.27 C72.300747,408.476668 71.3607564,408.746665 70.6340861,409.08 C69.9074158,409.413335 69.3807544,409.806664 69.0540861,410.26 C68.7274178,410.713336 68.5640861,411.219997 68.5640861,411.78 C68.5640861,412.313336 68.6507519,412.773331 68.8240861,413.16 C68.9974203,413.546669 69.2340846,413.863332 69.5340861,414.11 C69.8340876,414.356668 70.1874174,414.536666 70.5940861,414.65 C71.0007548,414.763334 71.4374171,414.82 71.9040861,414.82 C72.5307559,414.82 73.1040835,414.756667 73.6240861,414.63 C74.1440887,414.503333 74.6340838,414.320001 75.0940861,414.08 C75.5540884,413.839999 75.994084,413.553335 76.4140861,413.22 C76.8340882,412.886665 77.2440841,412.506669 77.6440861,412.08 L77.6440861,407.88 Z M66.1440861,399.6 C67.2640917,398.519995 68.4707463,397.713336 69.7640861,397.18 C71.0574259,396.646664 72.4907449,396.38 74.0640861,396.38 C75.1974251,396.38 76.2040817,396.566665 77.0840861,396.94 C77.9640905,397.313335 78.7040831,397.83333 79.3040861,398.5 C79.9040891,399.16667 80.3574179,399.973329 80.6640861,400.92 C80.9707543,401.866671 81.1240861,402.906661 81.1240861,404.04 L81.1240861,417 L79.5440861,417 C79.1974177,417 78.9307537,416.943334 78.7440861,416.83 C78.5574185,416.716666 78.4107533,416.493335 78.3040861,416.16 L77.9040861,414.24 C77.3707501,414.733336 76.8507553,415.169998 76.3440861,415.55 C75.8374169,415.930002 75.3040889,416.249999 74.7440861,416.51 C74.1840833,416.770001 73.5874226,416.969999 72.9540861,417.11 C72.3207496,417.250001 71.6174233,417.32 70.8440861,417.32 C70.0574155,417.32 69.3174229,417.210001 68.6240861,416.99 C67.9307493,416.769999 67.327422,416.440002 66.8140861,416 C66.3007502,415.559998 65.8940876,415.003337 65.5940861,414.33 C65.2940846,413.656663 65.1440861,412.860005 65.1440861,411.94 C65.1440861,411.139996 65.3640839,410.370004 65.8040861,409.63 C66.2440883,408.889996 66.9574145,408.233336 67.9440861,407.66 C68.9307577,407.086664 70.2174115,406.616669 71.8040861,406.25 C73.3907607,405.883331 75.3374079,405.673334 77.6440861,405.62 L77.6440861,404.04 C77.6440861,402.466659 77.3040895,401.276671 76.6240861,400.47 C75.9440827,399.663329 74.9507593,399.26 73.6440861,399.26 C72.7640817,399.26 72.0274224,399.369999 71.4340861,399.59 C70.8407498,399.810001 70.3274216,400.056665 69.8940861,400.33 C69.4607506,400.603335 69.087421,400.849999 68.7740861,401.07 C68.4607512,401.290001 68.1507543,401.4 67.8440861,401.4 C67.6040849,401.4 67.3974203,401.336667 67.2240861,401.21 C67.0507519,401.083333 66.9040867,400.926668 66.7840861,400.74 L66.1440861,399.6 Z M99.7440861,401.56 C99.0774161,400.666662 98.3574233,400.043335 97.5840861,399.69 C96.8107489,399.336665 95.9440909,399.16 94.9840861,399.16 C93.1040767,399.16 91.6574245,399.833327 90.6440861,401.18 C89.6307477,402.526673 89.1240861,404.446654 89.1240861,406.94 C89.1240861,408.260007 89.2374183,409.389995 89.4640861,410.33 C89.6907539,411.270005 90.0240839,412.04333 90.4640861,412.65 C90.9040883,413.25667 91.4440829,413.699999 92.0840861,413.98 C92.7240893,414.260001 93.4507487,414.4 94.2640861,414.4 C95.4374253,414.4 96.4607484,414.133336 97.3340861,413.6 C98.2074238,413.066664 99.0107491,412.313338 99.7440861,411.34 L99.7440861,401.56 Z M103.304086,387.54 L103.304086,417 L101.184086,417 C100.677417,417 100.35742,416.753336 100.224086,416.26 L99.9040861,413.8 C99.0374151,414.840005 98.0507583,415.679997 96.9440861,416.32 C95.8374139,416.960003 94.5574267,417.28 93.1040861,417.28 C91.9440803,417.28 90.8907575,417.056669 89.9440861,416.61 C88.9974147,416.163331 88.1907561,415.506671 87.5240861,414.64 C86.8574161,413.773329 86.3440879,412.69334 85.9840861,411.4 C85.6240843,410.10666 85.4440861,408.620008 85.4440861,406.94 C85.4440861,405.446659 85.6440841,404.056673 86.0440861,402.77 C86.4440881,401.483327 87.0174157,400.366671 87.7640861,399.42 C88.5107565,398.473329 89.427414,397.730003 90.5140861,397.19 C91.6007582,396.649997 92.8240793,396.38 94.1840861,396.38 C95.4240923,396.38 96.487415,396.589998 97.3740861,397.01 C98.2607572,397.430002 99.0507493,398.01333 99.7440861,398.76 L99.7440861,387.54 L103.304086,387.54 Z M122.144086,401.56 C121.477416,400.666662 120.757423,400.043335 119.984086,399.69 C119.210749,399.336665 118.344091,399.16 117.384086,399.16 C115.504077,399.16 114.057424,399.833327 113.044086,401.18 C112.030748,402.526673 111.524086,404.446654 111.524086,406.94 C111.524086,408.260007 111.637418,409.389995 111.864086,410.33 C112.090754,411.270005 112.424084,412.04333 112.864086,412.65 C113.304088,413.25667 113.844083,413.699999 114.484086,413.98 C115.124089,414.260001 115.850749,414.4 116.664086,414.4 C117.837425,414.4 118.860748,414.133336 119.734086,413.6 C120.607424,413.066664 121.410749,412.313338 122.144086,411.34 L122.144086,401.56 Z M125.704086,387.54 L125.704086,417 L123.584086,417 C123.077417,417 122.75742,416.753336 122.624086,416.26 L122.304086,413.8 C121.437415,414.840005 120.450758,415.679997 119.344086,416.32 C118.237414,416.960003 116.957427,417.28 115.504086,417.28 C114.34408,417.28 113.290757,417.056669 112.344086,416.61 C111.397415,416.163331 110.590756,415.506671 109.924086,414.64 C109.257416,413.773329 108.744088,412.69334 108.384086,411.4 C108.024084,410.10666 107.844086,408.620008 107.844086,406.94 C107.844086,405.446659 108.044084,404.056673 108.444086,402.77 C108.844088,401.483327 109.417416,400.366671 110.164086,399.42 C110.910756,398.473329 111.827414,397.730003 112.914086,397.19 C114.000758,396.649997 115.224079,396.38 116.584086,396.38 C117.824092,396.38 118.887415,396.589998 119.774086,397.01 C120.660757,397.430002 121.450749,398.01333 122.144086,398.76 L122.144086,387.54 L125.704086,387.54 Z M145.164086,412.12 C145.817423,413.000004 146.530749,413.619998 147.304086,413.98 C148.077423,414.340002 148.944081,414.52 149.904086,414.52 C151.797429,414.52 153.250748,413.846673 154.264086,412.5 C155.277424,411.153327 155.784086,409.233346 155.784086,406.74 C155.784086,405.419993 155.667421,404.286671 155.434086,403.34 C155.200752,402.393329 154.864088,401.61667 154.424086,401.01 C153.984084,400.40333 153.444089,399.960001 152.804086,399.68 C152.164083,399.399999 151.437423,399.26 150.624086,399.26 C149.46408,399.26 148.447424,399.526664 147.574086,400.06 C146.700748,400.593336 145.897423,401.346662 145.164086,402.32 L145.164086,412.12 Z M144.984086,399.88 C145.837424,398.826661 146.82408,397.980003 147.944086,397.34 C149.064092,396.699997 150.344079,396.38 151.784086,396.38 C152.957425,396.38 154.017415,396.603331 154.964086,397.05 C155.910757,397.496669 156.717416,398.156662 157.384086,399.03 C158.050756,399.903338 158.564084,400.98666 158.924086,402.28 C159.284088,403.57334 159.464086,405.059992 159.464086,406.74 C159.464086,408.233341 159.264088,409.623327 158.864086,410.91 C158.464084,412.196673 157.887423,413.309995 157.134086,414.25 C156.380749,415.190005 155.460758,415.929997 154.374086,416.47 C153.287414,417.010003 152.064093,417.28 150.704086,417.28 C149.46408,417.28 148.400757,417.070002 147.514086,416.65 C146.627415,416.229998 145.844089,415.64667 145.164086,414.9 L145.164086,423.86 L141.584086,423.86 L141.584086,396.74 L143.724086,396.74 C144.230755,396.74 144.544085,396.986664 144.664086,397.48 L144.984086,399.88 Z M167.684086,387.54 L167.684086,417 L164.124086,417 L164.124086,387.54 L167.684086,387.54 Z M184.424086,407.88 C182.784078,407.933334 181.387425,408.063332 180.234086,408.27 C179.080747,408.476668 178.140756,408.746665 177.414086,409.08 C176.687416,409.413335 176.160754,409.806664 175.834086,410.26 C175.507418,410.713336 175.344086,411.219997 175.344086,411.78 C175.344086,412.313336 175.430752,412.773331 175.604086,413.16 C175.77742,413.546669 176.014085,413.863332 176.314086,414.11 C176.614088,414.356668 176.967417,414.536666 177.374086,414.65 C177.780755,414.763334 178.217417,414.82 178.684086,414.82 C179.310756,414.82 179.884083,414.756667 180.404086,414.63 C180.924089,414.503333 181.414084,414.320001 181.874086,414.08 C182.334088,413.839999 182.774084,413.553335 183.194086,413.22 C183.614088,412.886665 184.024084,412.506669 184.424086,412.08 L184.424086,407.88 Z M172.924086,399.6 C174.044092,398.519995 175.250746,397.713336 176.544086,397.18 C177.837426,396.646664 179.270745,396.38 180.844086,396.38 C181.977425,396.38 182.984082,396.566665 183.864086,396.94 C184.74409,397.313335 185.484083,397.83333 186.084086,398.5 C186.684089,399.16667 187.137418,399.973329 187.444086,400.92 C187.750754,401.866671 187.904086,402.906661 187.904086,404.04 L187.904086,417 L186.324086,417 C185.977418,417 185.710754,416.943334 185.524086,416.83 C185.337418,416.716666 185.190753,416.493335 185.084086,416.16 L184.684086,414.24 C184.15075,414.733336 183.630755,415.169998 183.124086,415.55 C182.617417,415.930002 182.084089,416.249999 181.524086,416.51 C180.964083,416.770001 180.367423,416.969999 179.734086,417.11 C179.10075,417.250001 178.397423,417.32 177.624086,417.32 C176.837415,417.32 176.097423,417.210001 175.404086,416.99 C174.710749,416.769999 174.107422,416.440002 173.594086,416 C173.08075,415.559998 172.674088,415.003337 172.374086,414.33 C172.074085,413.656663 171.924086,412.860005 171.924086,411.94 C171.924086,411.139996 172.144084,410.370004 172.584086,409.63 C173.024088,408.889996 173.737414,408.233336 174.724086,407.66 C175.710758,407.086664 176.997411,406.616669 178.584086,406.25 C180.170761,405.883331 182.117408,405.673334 184.424086,405.62 L184.424086,404.04 C184.424086,402.466659 184.084089,401.276671 183.404086,400.47 C182.724083,399.663329 181.730759,399.26 180.424086,399.26 C179.544082,399.26 178.807422,399.369999 178.214086,399.59 C177.62075,399.810001 177.107422,400.056665 176.674086,400.33 C176.240751,400.603335 175.867421,400.849999 175.554086,401.07 C175.240751,401.290001 174.930754,401.4 174.624086,401.4 C174.384085,401.4 174.17742,401.336667 174.004086,401.21 C173.830752,401.083333 173.684087,400.926668 173.564086,400.74 L172.924086,399.6 Z M210.324086,396.74 L199.024086,422.98 C198.904085,423.246668 198.754087,423.459999 198.574086,423.62 C198.394085,423.780001 198.117421,423.86 197.744086,423.86 L195.104086,423.86 L198.804086,415.82 L190.444086,396.74 L193.524086,396.74 C193.830754,396.74 194.074085,396.816666 194.254086,396.97 C194.434087,397.123334 194.557419,397.293332 194.624086,397.48 L200.044086,410.24 C200.25742,410.800003 200.437419,411.386664 200.584086,412 C200.770754,411.37333 200.970752,410.780003 201.184086,410.22 L206.444086,397.48 C206.524086,397.266666 206.660752,397.090001 206.854086,396.95 C207.04742,396.809999 207.264085,396.74 207.504086,396.74 L210.324086,396.74 Z M226.464086,404.66 C226.464086,403.833329 226.347421,403.07667 226.114086,402.39 C225.880752,401.70333 225.540755,401.110003 225.094086,400.61 C224.647417,400.109997 224.104089,399.723335 223.464086,399.45 C222.824083,399.176665 222.097423,399.04 221.284086,399.04 C219.577411,399.04 218.227424,399.536662 217.234086,400.53 C216.240748,401.523338 215.624087,402.899991 215.384086,404.66 L226.464086,404.66 Z M229.344086,414.16 C228.904084,414.693336 228.377422,415.156665 227.764086,415.55 C227.15075,415.943335 226.49409,416.266665 225.794086,416.52 C225.094083,416.773335 224.370756,416.963333 223.624086,417.09 C222.877416,417.216667 222.137423,417.28 221.404086,417.28 C220.004079,417.28 218.714092,417.043336 217.534086,416.57 C216.35408,416.096664 215.33409,415.403338 214.474086,414.49 C213.614082,413.576662 212.944088,412.446673 212.464086,411.1 C211.984084,409.753327 211.744086,408.206675 211.744086,406.46 C211.744086,405.04666 211.960751,403.726673 212.394086,402.5 C212.827422,401.273327 213.450749,400.210004 214.264086,399.31 C215.077423,398.409996 216.070747,397.703336 217.244086,397.19 C218.417425,396.676664 219.737412,396.42 221.204086,396.42 C222.417425,396.42 223.540748,396.623331 224.574086,397.03 C225.607425,397.436669 226.500749,398.023329 227.254086,398.79 C228.007423,399.55667 228.597417,400.503328 229.024086,401.63 C229.450755,402.756672 229.664086,404.039993 229.664086,405.48 C229.664086,406.040003 229.604087,406.413332 229.484086,406.6 C229.364085,406.786668 229.137421,406.88 228.804086,406.88 L215.264086,406.88 C215.304086,408.160006 215.480751,409.273329 215.794086,410.22 C216.107421,411.166671 216.544083,411.956663 217.104086,412.59 C217.664089,413.223337 218.330749,413.696665 219.104086,414.01 C219.877423,414.323335 220.744081,414.48 221.704086,414.48 C222.597424,414.48 223.367416,414.376668 224.014086,414.17 C224.660756,413.963332 225.217417,413.740001 225.684086,413.5 C226.150755,413.259999 226.540751,413.036668 226.854086,412.83 C227.167421,412.623332 227.437418,412.52 227.664086,412.52 C227.957421,412.52 228.184085,412.633332 228.344086,412.86 L229.344086,414.16 Z M237.404086,400.8 C238.044089,399.413326 238.830748,398.330004 239.764086,397.55 C240.697424,396.769996 241.837413,396.38 243.184086,396.38 C243.610755,396.38 244.020751,396.426666 244.414086,396.52 C244.807421,396.613334 245.157418,396.759999 245.464086,396.96 L245.204086,399.62 C245.124086,399.953335 244.924088,400.12 244.604086,400.12 C244.417418,400.12 244.144088,400.08 243.784086,400 C243.424084,399.92 243.017422,399.88 242.564086,399.88 C241.924083,399.88 241.354089,399.973332 240.854086,400.16 C240.354084,400.346668 239.907421,400.623332 239.514086,400.99 C239.120751,401.356669 238.767421,401.809997 238.454086,402.35 C238.140751,402.890003 237.857421,403.506663 237.604086,404.2 L237.604086,417 L234.024086,417 L234.024086,396.74 L236.064086,396.74 C236.450755,396.74 236.717419,396.813333 236.864086,396.96 C237.010753,397.106667 237.110752,397.359998 237.164086,397.72 L237.404086,400.8 Z" id="to-add-player" fill="#FFFFFF"></path>
                        <use id="Rectangle-Copy-2" stroke="#FFFFFF" mask="url(#mask-2)" stroke-width="19.2" stroke-dasharray="23.52000045776367" xlink:href="#path-1"></use>
                        <path d="M115.981,93.728 C117.90501,92.1159919 119.997989,90.608007 122.26,89.204 C124.522011,87.799993 126.952987,86.5650053 129.553,85.499 C132.153013,84.4329947 134.947985,83.601003 137.938,83.003 C140.928015,82.404997 144.164983,82.106 147.649,82.106 C152.537024,82.106 156.94398,82.7559935 160.87,84.056 C164.79602,85.3560065 168.136986,87.2149879 170.893,89.633 C173.649014,92.0510121 175.767993,94.962983 177.25,98.369 C178.732007,101.775017 179.473,105.557979 179.473,109.718 C179.473,113.67002 178.927005,117.088986 177.835,119.975 C176.742995,122.861014 175.365008,125.369989 173.701,127.502 C172.036992,129.634011 170.20401,131.479992 168.202,133.04 C166.19999,134.600008 164.302009,136.042993 162.508,137.369 C160.713991,138.695007 159.154007,140.007993 157.828,141.308 C156.501993,142.608006 155.657002,144.063992 155.293,145.676 L153.109,156.596 L136.573,156.596 L134.857,144.038 C134.440998,141.489987 134.700995,139.267009 135.637,137.369 C136.573005,135.470991 137.859992,133.755008 139.498,132.221 C141.136008,130.686992 142.96899,129.231007 144.997,127.853 C147.02501,126.474993 148.922991,124.993008 150.691,123.407 C152.459009,121.820992 153.953994,120.05301 155.176,118.103 C156.398006,116.15299 157.009,113.826014 157.009,111.122 C157.009,108.001984 155.98201,105.519009 153.928,103.673 C151.87399,101.826991 149.053018,100.904 145.465,100.904 C142.708986,100.904 140.408009,101.189997 138.562,101.762 C136.715991,102.334003 135.130007,102.970996 133.804,103.673 C132.477993,104.375004 131.321005,105.011997 130.333,105.584 C129.344995,106.156003 128.357005,106.442 127.369,106.442 C125.132989,106.442 123.469005,105.48001 122.377,103.556 L115.981,93.728 Z M130.333,184.754 C130.333,182.881991 130.683996,181.140008 131.386,179.528 C132.088004,177.915992 133.049994,176.512006 134.272,175.316 C135.494006,174.119994 136.936992,173.171004 138.601,172.469 C140.265008,171.766996 142.08499,171.416 144.061,171.416 C145.98501,171.416 147.778992,171.766996 149.443,172.469 C151.107008,173.171004 152.562994,174.119994 153.811,175.316 C155.059006,176.512006 156.033996,177.915992 156.736,179.528 C157.438004,181.140008 157.789,182.881991 157.789,184.754 C157.789,186.626009 157.438004,188.380992 156.736,190.019 C156.033996,191.657008 155.059006,193.073994 153.811,194.27 C152.562994,195.466006 151.107008,196.401997 149.443,197.078 C147.778992,197.754003 145.98501,198.092 144.061,198.092 C142.08499,198.092 140.265008,197.754003 138.601,197.078 C136.936992,196.401997 135.494006,195.466006 134.272,194.27 C133.049994,193.073994 132.088004,191.657008 131.386,190.019 C130.683996,188.380992 130.333,186.626009 130.333,184.754 Z" id="?" fill="#FFFFFF"></path>
                        <g id="Oval-Copy-2">
                            <use fill="black" fill-opacity="1" filter="url(#filter-4)" xlink:href="#path-3"></use>
                            <use fill="#FF2121" fill-rule="evenodd" xlink:href="#path-3"></use>
                            <use fill="black" fill-opacity="1" filter="url(#filter-5)" xlink:href="#path-3"></use>
                            <use stroke="#000000" stroke-width="4.9007068" xlink:href="#path-3"></use>
                        </g>
                        <path d="M17.6,352.2 C18.7066722,352.2 19.6833291,352.053335 20.53,351.76 C21.3766709,351.466665 22.0899971,351.056669 22.67,350.53 C23.2500029,350.003331 23.6866652,349.373337 23.98,348.64 C24.2733348,347.906663 24.42,347.100004 24.42,346.22 C24.42,344.393324 23.8566723,342.966672 22.73,341.94 C21.6033277,340.913328 19.8933448,340.4 17.6,340.4 L13,340.4 L13,352.2 L17.6,352.2 Z M17.6,337.34 C19.4133424,337.34 20.9899933,337.549998 22.33,337.97 C23.6700067,338.390002 24.7799956,338.986663 25.66,339.76 C26.5400044,340.533337 27.1966645,341.466661 27.63,342.56 C28.0633355,343.653339 28.28,344.873327 28.28,346.22 C28.28,347.55334 28.046669,348.773328 27.58,349.88 C27.113331,350.986672 26.4300045,351.939996 25.53,352.74 C24.6299955,353.540004 23.5166733,354.163331 22.19,354.61 C20.8633267,355.056669 19.333342,355.28 17.6,355.28 L13,355.28 L13,366 L9.14,366 L9.14,337.34 L17.6,337.34 Z M35.32,349.8 C35.9600032,348.413326 36.746662,347.330004 37.68,346.55 C38.613338,345.769996 39.7533266,345.38 41.1,345.38 C41.5266688,345.38 41.9366647,345.426666 42.33,345.52 C42.7233353,345.613334 43.0733318,345.759999 43.38,345.96 L43.12,348.62 C43.0399996,348.953335 42.8400016,349.12 42.52,349.12 C42.3333324,349.12 42.0600018,349.08 41.7,349 C41.3399982,348.92 40.9333356,348.88 40.48,348.88 C39.8399968,348.88 39.2700025,348.973332 38.77,349.16 C38.2699975,349.346668 37.8233353,349.623331 37.43,349.99 C37.0366647,350.356668 36.6833349,350.809997 36.37,351.35 C36.0566651,351.890003 35.7733346,352.506663 35.52,353.2 L35.52,366 L31.94,366 L31.94,345.74 L33.98,345.74 C34.3666686,345.74 34.6333326,345.813333 34.78,345.96 C34.9266674,346.106667 35.0266664,346.359998 35.08,346.72 L35.32,349.8 Z M59.24,353.66 C59.24,352.833329 59.1233345,352.07667 58.89,351.39 C58.6566655,350.70333 58.3166689,350.110002 57.87,349.61 C57.4233311,349.109997 56.8800032,348.723335 56.24,348.45 C55.5999968,348.176665 54.8733374,348.04 54.06,348.04 C52.3533248,348.04 51.0033383,348.536662 50.01,349.53 C49.0166617,350.523338 48.4000012,351.899991 48.16,353.66 L59.24,353.66 Z M62.12,363.16 C61.6799978,363.693336 61.1533364,364.156665 60.54,364.55 C59.9266636,364.943335 59.2700035,365.266665 58.57,365.52 C57.8699965,365.773335 57.1466704,365.963333 56.4,366.09 C55.6533296,366.216667 54.913337,366.28 54.18,366.28 C52.779993,366.28 51.4900059,366.043336 50.31,365.57 C49.1299941,365.096664 48.1100043,364.403338 47.25,363.49 C46.3899957,362.576662 45.7200024,361.446673 45.24,360.1 C44.7599976,358.753327 44.52,357.206675 44.52,355.46 C44.52,354.04666 44.7366645,352.726673 45.17,351.5 C45.6033355,350.273327 46.2266626,349.210004 47.04,348.31 C47.8533374,347.409995 48.8466608,346.703336 50.02,346.19 C51.1933392,345.676664 52.513326,345.42 53.98,345.42 C55.1933394,345.42 56.3166615,345.623331 57.35,346.03 C58.3833385,346.436669 59.2766629,347.023329 60.03,347.79 C60.7833371,348.55667 61.3733312,349.503328 61.8,350.63 C62.2266688,351.756672 62.44,353.039993 62.44,354.48 C62.44,355.040003 62.3800006,355.413332 62.26,355.6 C62.1399994,355.786668 61.913335,355.88 61.58,355.88 L48.04,355.88 C48.0800002,357.160006 48.2566651,358.273329 48.57,359.22 C48.8833349,360.166671 49.3199972,360.956663 49.88,361.59 C50.4400028,362.223336 51.1066628,362.696665 51.88,363.01 C52.6533372,363.323335 53.5199952,363.48 54.48,363.48 C55.3733378,363.48 56.1433301,363.376668 56.79,363.17 C57.4366699,362.963332 57.993331,362.740001 58.46,362.5 C58.926669,362.259999 59.3166651,362.036668 59.63,361.83 C59.9433349,361.623332 60.2133322,361.52 60.44,361.52 C60.7333348,361.52 60.9599992,361.633332 61.12,361.86 L62.12,363.16 Z M78.6,349.08 C78.4399992,349.373335 78.193335,349.52 77.86,349.52 C77.659999,349.52 77.4333346,349.446667 77.18,349.3 C76.9266654,349.153333 76.6166685,348.990001 76.25,348.81 C75.8833315,348.629999 75.4466692,348.463334 74.94,348.31 C74.4333308,348.156666 73.8333368,348.08 73.14,348.08 C72.539997,348.08 72.0000024,348.156666 71.52,348.31 C71.0399976,348.463334 70.6300017,348.673332 70.29,348.94 C69.9499983,349.206668 69.6900009,349.516665 69.51,349.87 C69.3299991,350.223335 69.24,350.606665 69.24,351.02 C69.24,351.540003 69.3899985,351.973332 69.69,352.32 C69.9900015,352.666668 70.3866642,352.966665 70.88,353.22 C71.3733358,353.473335 71.9333302,353.696666 72.56,353.89 C73.1866698,354.083334 73.8299967,354.289999 74.49,354.51 C75.1500033,354.730001 75.7933302,354.973332 76.42,355.24 C77.0466698,355.506668 77.6066642,355.839998 78.1,356.24 C78.5933358,356.640002 78.9899985,357.129997 79.29,357.71 C79.5900015,358.290003 79.74,358.986663 79.74,359.8 C79.74,360.733338 79.573335,361.596663 79.24,362.39 C78.906665,363.183337 78.4133366,363.869997 77.76,364.45 C77.1066634,365.030003 76.3066714,365.486665 75.36,365.82 C74.4133286,366.153335 73.3200062,366.32 72.08,366.32 C70.6666596,366.32 69.3866724,366.090002 68.24,365.63 C67.0933276,365.169998 66.120004,364.580004 65.32,363.86 L66.16,362.5 C66.2666672,362.326666 66.3933326,362.193334 66.54,362.1 C66.6866674,362.006666 66.8733322,361.96 67.1,361.96 C67.3400012,361.96 67.593332,362.053332 67.86,362.24 C68.126668,362.426668 68.4499981,362.633332 68.83,362.86 C69.2100019,363.086668 69.6733306,363.293332 70.22,363.48 C70.7666694,363.666668 71.4466626,363.76 72.26,363.76 C72.9533368,363.76 73.5599974,363.670001 74.08,363.49 C74.6000026,363.309999 75.0333316,363.066668 75.38,362.76 C75.7266684,362.453332 75.9833325,362.100002 76.15,361.7 C76.3166675,361.299998 76.4,360.873336 76.4,360.42 C76.4,359.859997 76.2500015,359.396668 75.95,359.03 C75.6499985,358.663331 75.2533358,358.350001 74.76,358.09 C74.2666642,357.829999 73.7033365,357.603334 73.07,357.41 C72.4366635,357.216666 71.7900033,357.013334 71.13,356.8 C70.4699967,356.586666 69.8233365,356.343335 69.19,356.07 C68.5566635,355.796665 67.9933358,355.453335 67.5,355.04 C67.0066642,354.626665 66.6100015,354.11667 66.31,353.51 C66.0099985,352.90333 65.86,352.166671 65.86,351.3 C65.86,350.526663 66.0199984,349.783337 66.34,349.07 C66.6600016,348.356663 67.1266636,347.730003 67.74,347.19 C68.3533364,346.649997 69.1066622,346.220002 70,345.9 C70.8933378,345.579998 71.9133276,345.42 73.06,345.42 C74.39334,345.42 75.5899947,345.629998 76.65,346.05 C77.7100053,346.470002 78.6266628,347.046663 79.4,347.78 L78.6,349.08 Z M95.92,349.08 C95.7599992,349.373335 95.513335,349.52 95.18,349.52 C94.979999,349.52 94.7533346,349.446667 94.5,349.3 C94.2466654,349.153333 93.9366685,348.990001 93.57,348.81 C93.2033315,348.629999 92.7666692,348.463334 92.26,348.31 C91.7533308,348.156666 91.1533368,348.08 90.46,348.08 C89.859997,348.08 89.3200024,348.156666 88.84,348.31 C88.3599976,348.463334 87.9500017,348.673332 87.61,348.94 C87.2699983,349.206668 87.0100009,349.516665 86.83,349.87 C86.6499991,350.223335 86.56,350.606665 86.56,351.02 C86.56,351.540003 86.7099985,351.973332 87.01,352.32 C87.3100015,352.666668 87.7066642,352.966665 88.2,353.22 C88.6933358,353.473335 89.2533302,353.696666 89.88,353.89 C90.5066698,354.083334 91.1499967,354.289999 91.81,354.51 C92.4700033,354.730001 93.1133302,354.973332 93.74,355.24 C94.3666698,355.506668 94.9266642,355.839998 95.42,356.24 C95.9133358,356.640002 96.3099985,357.129997 96.61,357.71 C96.9100015,358.290003 97.06,358.986663 97.06,359.8 C97.06,360.733338 96.893335,361.596663 96.56,362.39 C96.226665,363.183337 95.7333366,363.869997 95.08,364.45 C94.4266634,365.030003 93.6266714,365.486665 92.68,365.82 C91.7333286,366.153335 90.6400062,366.32 89.4,366.32 C87.9866596,366.32 86.7066724,366.090002 85.56,365.63 C84.4133276,365.169998 83.440004,364.580004 82.64,363.86 L83.48,362.5 C83.5866672,362.326666 83.7133326,362.193334 83.86,362.1 C84.0066674,362.006666 84.1933322,361.96 84.42,361.96 C84.6600012,361.96 84.913332,362.053332 85.18,362.24 C85.446668,362.426668 85.7699981,362.633332 86.15,362.86 C86.5300019,363.086668 86.9933306,363.293332 87.54,363.48 C88.0866694,363.666668 88.7666626,363.76 89.58,363.76 C90.2733368,363.76 90.8799974,363.670001 91.4,363.49 C91.9200026,363.309999 92.3533316,363.066668 92.7,362.76 C93.0466684,362.453332 93.3033325,362.100002 93.47,361.7 C93.6366675,361.299998 93.72,360.873336 93.72,360.42 C93.72,359.859997 93.5700015,359.396668 93.27,359.03 C92.9699985,358.663331 92.5733358,358.350001 92.08,358.09 C91.5866642,357.829999 91.0233365,357.603334 90.39,357.41 C89.7566635,357.216666 89.1100033,357.013334 88.45,356.8 C87.7899967,356.586666 87.1433365,356.343335 86.51,356.07 C85.8766635,355.796665 85.3133358,355.453335 84.82,355.04 C84.3266642,354.626665 83.9300015,354.11667 83.63,353.51 C83.3299985,352.90333 83.18,352.166671 83.18,351.3 C83.18,350.526663 83.3399984,349.783337 83.66,349.07 C83.9800016,348.356663 84.4466636,347.730003 85.06,347.19 C85.6733364,346.649997 86.4266622,346.220002 87.32,345.9 C88.2133378,345.579998 89.2333276,345.42 90.38,345.42 C91.71334,345.42 92.9099947,345.629998 93.97,346.05 C95.0300053,346.470002 95.9466628,347.046663 96.72,347.78 L95.92,349.08 Z M120.22,345.42 C121.700007,345.42 123.033327,345.666664 124.22,346.16 C125.406673,346.653336 126.419996,347.353329 127.26,348.26 C128.100004,349.166671 128.743331,350.263327 129.19,351.55 C129.636669,352.836673 129.86,354.273325 129.86,355.86 C129.86,357.460008 129.636669,358.899994 129.19,360.18 C128.743331,361.460006 128.100004,362.553329 127.26,363.46 C126.419996,364.366671 125.406673,365.063331 124.22,365.55 C123.033327,366.036669 121.700007,366.28 120.22,366.28 C118.726659,366.28 117.383339,366.036669 116.19,365.55 C114.996661,365.063331 113.980004,364.366671 113.14,363.46 C112.299996,362.553329 111.656669,361.460006 111.21,360.18 C110.763331,358.899994 110.54,357.460008 110.54,355.86 C110.54,354.273325 110.763331,352.836673 111.21,351.55 C111.656669,350.263327 112.299996,349.166671 113.14,348.26 C113.980004,347.353329 114.996661,346.653336 116.19,346.16 C117.383339,345.666664 118.726659,345.42 120.22,345.42 Z M120.22,363.5 C122.22001,363.5 123.713328,362.830007 124.7,361.49 C125.686672,360.149993 126.18,358.280012 126.18,355.88 C126.18,353.466655 125.686672,351.586673 124.7,350.24 C123.713328,348.893327 122.22001,348.22 120.22,348.22 C119.206662,348.22 118.323337,348.393332 117.57,348.74 C116.816663,349.086668 116.190002,349.586663 115.69,350.24 C115.189997,350.893337 114.816668,351.696662 114.57,352.65 C114.323332,353.603338 114.2,354.679994 114.2,355.88 C114.2,358.280012 114.696662,360.149993 115.69,361.49 C116.683338,362.830007 118.193323,363.5 120.22,363.5 Z M140.22,366.32 C138.619992,366.32 137.390004,365.873338 136.53,364.98 C135.669996,364.086662 135.24,362.800008 135.24,361.12 L135.24,348.72 L132.8,348.72 C132.586666,348.72 132.406667,348.656667 132.26,348.53 C132.113333,348.403333 132.04,348.206668 132.04,347.94 L132.04,346.52 L135.36,346.1 L136.18,339.84 C136.22,339.639999 136.309999,339.476667 136.45,339.35 C136.590001,339.223333 136.773332,339.16 137,339.16 L138.8,339.16 L138.8,346.14 L144.66,346.14 L144.66,348.72 L138.8,348.72 L138.8,360.88 C138.8,361.733338 139.006665,362.366665 139.42,362.78 C139.833335,363.193335 140.366663,363.4 141.02,363.4 C141.393335,363.4 141.716665,363.35 141.99,363.25 C142.263335,363.149999 142.499999,363.040001 142.7,362.92 C142.900001,362.799999 143.069999,362.69 143.21,362.59 C143.350001,362.489999 143.473333,362.44 143.58,362.44 C143.766668,362.44 143.933333,362.553332 144.08,362.78 L145.12,364.48 C144.506664,365.053336 143.766671,365.503332 142.9,365.83 C142.033329,366.156668 141.140005,366.32 140.22,366.32 Z M151.92,348.44 C152.786671,347.519995 153.746661,346.786669 154.8,346.24 C155.853339,345.693331 157.06666,345.42 158.44,345.42 C159.546672,345.42 160.523329,345.603331 161.37,345.97 C162.216671,346.336668 162.92333,346.856663 163.49,347.53 C164.056669,348.203337 164.486665,349.013329 164.78,349.96 C165.073335,350.906671 165.22,351.953328 165.22,353.1 L165.22,366 L161.64,366 L161.64,353.1 C161.64,351.566659 161.290003,350.376671 160.59,349.53 C159.889996,348.683329 158.826674,348.26 157.4,348.26 C156.346661,348.26 155.363338,348.513331 154.45,349.02 C153.536662,349.526669 152.693337,350.213329 151.92,351.08 L151.92,366 L148.34,366 L148.34,336.54 L151.92,336.54 L151.92,348.44 Z M184.22,353.66 C184.22,352.833329 184.103334,352.07667 183.87,351.39 C183.636665,350.70333 183.296669,350.110002 182.85,349.61 C182.403331,349.109997 181.860003,348.723335 181.22,348.45 C180.579997,348.176665 179.853337,348.04 179.04,348.04 C177.333325,348.04 175.983338,348.536662 174.99,349.53 C173.996662,350.523338 173.380001,351.899991 173.14,353.66 L184.22,353.66 Z M187.1,363.16 C186.659998,363.693336 186.133336,364.156665 185.52,364.55 C184.906664,364.943335 184.250003,365.266665 183.55,365.52 C182.849996,365.773335 182.12667,365.963333 181.38,366.09 C180.63333,366.216667 179.893337,366.28 179.16,366.28 C177.759993,366.28 176.470006,366.043336 175.29,365.57 C174.109994,365.096664 173.090004,364.403338 172.23,363.49 C171.369996,362.576662 170.700002,361.446673 170.22,360.1 C169.739998,358.753327 169.5,357.206675 169.5,355.46 C169.5,354.04666 169.716664,352.726673 170.15,351.5 C170.583335,350.273327 171.206663,349.210004 172.02,348.31 C172.833337,347.409995 173.826661,346.703336 175,346.19 C176.173339,345.676664 177.493326,345.42 178.96,345.42 C180.173339,345.42 181.296661,345.623331 182.33,346.03 C183.363338,346.436669 184.256663,347.023329 185.01,347.79 C185.763337,348.55667 186.353331,349.503328 186.78,350.63 C187.206669,351.756672 187.42,353.039993 187.42,354.48 C187.42,355.040003 187.360001,355.413332 187.24,355.6 C187.119999,355.786668 186.893335,355.88 186.56,355.88 L173.02,355.88 C173.06,357.160006 173.236665,358.273329 173.55,359.22 C173.863335,360.166671 174.299997,360.956663 174.86,361.59 C175.420003,362.223336 176.086663,362.696665 176.86,363.01 C177.633337,363.323335 178.499995,363.48 179.46,363.48 C180.353338,363.48 181.12333,363.376668 181.77,363.17 C182.41667,362.963332 182.973331,362.740001 183.44,362.5 C183.906669,362.259999 184.296665,362.036668 184.61,361.83 C184.923335,361.623332 185.193332,361.52 185.42,361.52 C185.713335,361.52 185.939999,361.633332 186.1,361.86 L187.1,363.16 Z M195.16,349.8 C195.800003,348.413326 196.586662,347.330004 197.52,346.55 C198.453338,345.769996 199.593327,345.38 200.94,345.38 C201.366669,345.38 201.776665,345.426666 202.17,345.52 C202.563335,345.613334 202.913332,345.759999 203.22,345.96 L202.96,348.62 C202.88,348.953335 202.680002,349.12 202.36,349.12 C202.173332,349.12 201.900002,349.08 201.54,349 C201.179998,348.92 200.773336,348.88 200.32,348.88 C199.679997,348.88 199.110002,348.973332 198.61,349.16 C198.109997,349.346668 197.663335,349.623331 197.27,349.99 C196.876665,350.356668 196.523335,350.809997 196.21,351.35 C195.896665,351.890003 195.613335,352.506663 195.36,353.2 L195.36,366 L191.78,366 L191.78,345.74 L193.82,345.74 C194.206669,345.74 194.473333,345.813333 194.62,345.96 C194.766667,346.106667 194.866666,346.359998 194.92,346.72 L195.16,349.8 Z" id="Press-other" fill="#FFFFFF"></path>
                    </g>
                </g>
                <g id="Group-3"></g>
            </g>
        </g>
    </g>
</svg>