<?xml version="1.0" encoding="UTF-8"?>
<svg width="33px" height="33px" viewBox="0 0 33 33" version="1.1" xmlns="http://www.w3.org/2000/svg" xmlns:xlink="http://www.w3.org/1999/xlink">
    <!-- Generator: Sketch 43.1 (39012) - http://www.bohemiancoding.com/sketch -->
    <title>Shape</title>
    <desc>Created with Sketch.</desc>
    <defs></defs>
    <g id="frontend" stroke="none" stroke-width="1" fill="none" fill-rule="evenodd">
        <g id="GameInProgress-Copy" transform="translate(-499.000000, -100.000000)" fill-rule="nonzero" fill="#FFFFFF">
            <g id="Group-2" transform="translate(499.000000, 94.000000)">
                <g id="Group-3">
                    <g id="Group" transform="translate(0.000000, 6.000000)">
                        <path d="M16.5,0 C7.425,0 0,7.425 0,16.5 C0,25.575 7.425,33 16.5,33 C25.575,33 33,25.575 33,16.5 C33,7.425 25.575,0 16.5,0 Z M16.5,29.4642857 C9.36964286,29.4642857 3.53571429,23.6303571 3.53571429,16.5 C3.53571429,9.36964286 9.36964286,3.53571429 16.5,3.53571429 C23.6303571,3.53571429 29.4642857,9.36964286 29.4642857,16.5 C29.4642857,23.6303571 23.6303571,29.4642857 16.5,29.4642857 Z M25.7517857,17.5017857 C25.7517857,18.5035714 24.9857143,19.2696429 23.9839286,19.2696429 L15.9107143,19.2696429 C14.9089286,19.2696429 14.1428571,18.5035714 14.1428571,17.5017857 L14.1428571,7.77857143 C14.1428571,6.77678571 14.9089286,6.01071429 15.9107143,6.01071429 C16.9125,6.01071429 17.6785714,6.77678571 17.6785714,7.77857143 L17.6785714,15.7339286 L23.9839286,15.7339286 C24.9267857,15.7339286 25.7517857,16.5 25.7517857,17.5017857 Z" id="Shape"></path>
                    </g>
                </g>
            </g>
        </g>
    </g>
</svg>