<?xml version="1.0" encoding="UTF-8"?>
<svg width="766px" height="180px" viewBox="0 0 766 180" version="1.1" xmlns="http://www.w3.org/2000/svg" xmlns:xlink="http://www.w3.org/1999/xlink">
    <!-- Generator: Sketch 43.2 (39069) - http://www.bohemiancoding.com/sketch -->
    <title>Artboard Copy 3</title>
    <desc>Created with Sketch.</desc>
    <defs>
        <path d="M88.7,57.325 L56.9,57.325 L56.9,148 L34.325,148 L34.325,57.325 L2.525,57.325 L2.525,39.175 L88.7,39.175 L88.7,57.325 Z M124.925,148 L102.275,148 L102.275,39.175 L124.925,39.175 L124.925,148 Z M267.725,39.175 L267.725,148 L247.85,148 L247.85,81.175 C247.85,79.774993 247.8875,78.275008 247.9625,76.675 C248.0375,75.074992 248.174999,73.4500082 248.375,71.8 L217.25,130.825 C215.549992,134.075016 212.925018,135.7 209.375,135.7 L206.225,135.7 C204.474991,135.7 202.925007,135.287504 201.575,134.4625 C200.224993,133.637496 199.150004,132.425008 198.35,130.825 L167.075,71.575 C167.225001,73.3250087 167.35,75.0124919 167.45,76.6375 C167.550001,78.2625081 167.6,79.774993 167.6,81.175 L167.6,148 L147.725,148 L147.725,39.175 L164.825,39.175 C165.775005,39.175 166.624996,39.1999998 167.375,39.25 C168.125004,39.3000002 168.787497,39.4374989 169.3625,39.6625 C169.937503,39.8875011 170.462498,40.2374976 170.9375,40.7125 C171.412502,41.1875024 171.874998,41.8499958 172.325,42.7 L202.775,100.75 C203.725005,102.500009 204.612496,104.299991 205.4375,106.15 C206.262504,108.000009 207.049996,109.89999 207.8,111.85 C208.550004,109.84999 209.337496,107.900009 210.1625,106 C210.987504,104.099991 211.874995,102.275009 212.825,100.525 L243.05,42.7 C243.500002,41.8499958 243.974998,41.1875024 244.475,40.7125 C244.975003,40.2374976 245.512497,39.8875011 246.0875,39.6625 C246.662503,39.4374989 247.312496,39.3000002 248.0375,39.25 C248.762504,39.1999998 249.624995,39.175 250.625,39.175 L267.725,39.175 Z M313.1,56.8 L313.1,84.775 L349.4,84.775 L349.4,101.8 L313.1,101.8 L313.1,130.375 L359.75,130.375 L359.75,148 L290.45,148 L290.45,39.175 L359.75,39.175 L359.75,56.8 L313.1,56.8 Z M387.725,31.975 C390.275013,36.0750205 391.987496,40.324978 392.8625,44.725 C393.737504,49.125022 393.800004,53.4624786 393.05,57.7375 C392.299996,62.0125214 390.737512,66.1249803 388.3625,70.075 C385.987488,74.0250198 382.80002,77.5749842 378.8,80.725 L372.35,76.825 C371.749997,76.4749982 371.337501,76.0625024 371.1125,75.5875 C370.887499,75.1124976 370.7875,74.6375024 370.8125,74.1625 C370.8375,73.6874976 370.949999,73.2375021 371.15,72.8125 C371.350001,72.3874979 371.599999,72.0250015 371.9,71.725 C372.850005,70.6249945 373.812495,69.0875099 374.7875,67.1125 C375.762505,65.1374901 376.449998,62.8875126 376.85,60.3625 C377.250002,57.8374874 377.225002,55.1000147 376.775,52.15 C376.324998,49.1999852 375.175009,46.225015 373.325,43.225 C372.324995,41.6749923 372.049998,40.3125059 372.5,39.1375 C372.950002,37.9624941 373.849993,37.1500023 375.2,36.7 L387.725,31.975 Z M469.025,60.025 C468.324997,61.1750057 467.612504,62.0124974 466.8875,62.5375 C466.162496,63.0625026 465.225006,63.325 464.075,63.325 C462.974995,63.325 461.787506,62.9375039 460.5125,62.1625 C459.237494,61.3874961 457.750009,60.5500045 456.05,59.65 C454.349992,58.7499955 452.400011,57.9125039 450.2,57.1375 C447.999989,56.3624961 445.425015,55.975 442.475,55.975 C437.274974,55.975 433.375013,57.1374884 430.775,59.4625 C428.174987,61.7875116 426.875,64.8249813 426.875,68.575 C426.875,70.975012 427.587493,72.9624921 429.0125,74.5375 C430.437507,76.1125079 432.312488,77.4749943 434.6375,78.625 C436.962512,79.7750058 439.599985,80.7999955 442.55,81.7 C445.500015,82.6000045 448.524985,83.5874946 451.625,84.6625 C454.725016,85.7375054 457.749985,86.9999928 460.7,88.45 C463.650015,89.9000073 466.287488,91.724989 468.6125,93.925 C470.937512,96.125011 472.812493,98.8124841 474.2375,101.9875 C475.662507,105.162516 476.375,109.024977 476.375,113.575 C476.375,118.525025 475.512509,123.162478 473.7875,127.4875 C472.062491,131.812522 469.575016,135.587484 466.325,138.8125 C463.074984,142.037516 459.062524,144.574991 454.2875,146.425 C449.512476,148.275009 444.10003,149.2 438.05,149.2 C434.599983,149.2 431.162517,148.850004 427.7375,148.15 C424.312483,147.449996 421.012516,146.475006 417.8375,145.225 C414.662484,143.974994 411.675014,142.475009 408.875,140.725 C406.074986,138.974991 403.625011,137.025011 401.525,134.875 L408.125,124.225 C408.675003,123.424996 409.399996,122.762503 410.3,122.2375 C411.200005,121.712497 412.149995,121.45 413.15,121.45 C414.500007,121.45 415.924993,121.949995 417.425,122.95 C418.925008,123.950005 420.64999,125.049994 422.6,126.25 C424.55001,127.450006 426.812487,128.549995 429.3875,129.55 C431.962513,130.550005 435.049982,131.05 438.65,131.05 C443.900026,131.05 447.962486,129.850012 450.8375,127.45 C453.712514,125.049988 455.15,121.475024 455.15,116.725 C455.15,113.974986 454.437507,111.750008 453.0125,110.05 C451.587493,108.349992 449.725012,106.925006 447.425,105.775 C445.124989,104.624994 442.500015,103.637504 439.55,102.8125 C436.599985,101.987496 433.575016,101.075005 430.475,100.075 C427.374985,99.074995 424.350015,97.875007 421.4,96.475 C418.449985,95.074993 415.825012,93.2250115 413.525,90.925 C411.224989,88.6249885 409.362507,85.775017 407.9375,82.375 C406.512493,78.974983 405.8,74.7500253 405.8,69.7 C405.8,65.6499797 406.599992,61.725019 408.2,57.925 C409.800008,54.124981 412.149985,50.7500147 415.25,47.8 C418.350016,44.8499853 422.162477,42.475009 426.6875,40.675 C431.212523,38.874991 436.399971,37.975 442.25,37.975 C448.800033,37.975 454.862472,38.9874899 460.4375,41.0125 C466.012528,43.0375101 470.724981,45.849982 474.575,49.45 L469.025,60.025 Z M572.9,130 C576.550018,130 579.824985,129.387506 582.725,128.1625 C585.625014,126.937494 588.07499,125.200011 590.075,122.95 C592.07501,120.699989 593.599995,117.975016 594.65,114.775 C595.700005,111.574984 596.225,107.97502 596.225,103.975 L596.225,39.175 L618.725,39.175 L618.725,103.975 C618.725,110.575033 617.662511,116.637472 615.5375,122.1625 C613.412489,127.687528 610.37502,132.44998 606.425,136.45 C602.47498,140.45002 597.675028,143.574989 592.025,145.825 C586.374972,148.075011 580.000035,149.2 572.9,149.2 C565.799964,149.2 559.412528,148.075011 553.7375,145.825 C548.062472,143.574989 543.25002,140.45002 539.3,136.45 C535.34998,132.44998 532.312511,127.687528 530.1875,122.1625 C528.062489,116.637472 527,110.575033 527,103.975 L527,39.175 L549.5,39.175 L549.5,103.975 C549.5,107.97502 550.024995,111.574984 551.075,114.775 C552.125005,117.975016 553.64999,120.699989 555.65,122.95 C557.65001,125.200011 560.099986,126.937494 563,128.1625 C565.900014,129.387506 569.199981,130 572.9,130 Z M676.925,93.325 C683.975035,93.325 689.137484,91.625017 692.4125,88.225 C695.687516,84.824983 697.325,80.1750295 697.325,74.275 C697.325,71.5749865 696.912504,69.1125111 696.0875,66.8875 C695.262496,64.6624889 694.012508,62.7625079 692.3375,61.1875 C690.662492,59.6124921 688.550013,58.4000042 686,57.55 C683.449987,56.6999957 680.425017,56.275 676.925,56.275 L662.675,56.275 L662.675,93.325 L676.925,93.325 Z M676.925,39.175 C684.375037,39.175 690.812473,40.0499913 696.2375,41.8 C701.662527,43.5500088 706.124982,45.9874844 709.625,49.1125 C713.125018,52.2375156 715.712492,55.9499785 717.3875,60.25 C719.062508,64.5500215 719.9,69.2249748 719.9,74.275 C719.9,79.6250268 719.025009,84.5249778 717.275,88.975 C715.524991,93.4250222 712.875018,97.249984 709.325,100.45 C705.774982,103.650016 701.300027,106.137491 695.9,107.9125 C690.499973,109.687509 684.175036,110.575 676.925,110.575 L662.675,110.575 L662.675,148 L640.175,148 L640.175,39.175 L676.925,39.175 Z M754.025,39.175 L754.025,82.075 C754.025,86.6250227 753.787502,91.1249777 753.3125,95.575 C752.837498,100.025022 752.175004,104.649976 751.325,109.45 L737.375,109.45 C736.524996,104.649976 735.862502,100.025022 735.3875,95.575 C734.912498,91.1249777 734.675,86.6250227 734.675,82.075 L734.675,39.175 L754.025,39.175 Z M731.9,137.125 C731.9,135.474992 732.212497,133.912507 732.8375,132.4375 C733.462503,130.962493 734.324995,129.687505 735.425,128.6125 C736.525005,127.537495 737.812493,126.687503 739.2875,126.0625 C740.762507,125.437497 742.374991,125.125 744.125,125.125 C745.825008,125.125 747.412493,125.437497 748.8875,126.0625 C750.362507,126.687503 751.649995,127.537495 752.75,128.6125 C753.850005,129.687505 754.724997,130.962493 755.375,132.4375 C756.025003,133.912507 756.35,135.474992 756.35,137.125 C756.35,138.825008 756.025003,140.399993 755.375,141.85 C754.724997,143.300007 753.850005,144.562495 752.75,145.6375 C751.649995,146.712505 750.362507,147.549997 748.8875,148.15 C747.412493,148.750003 745.825008,149.05 744.125,149.05 C742.374991,149.05 740.762507,148.750003 739.2875,148.15 C737.812493,147.549997 736.525005,146.712505 735.425,145.6375 C734.324995,144.562495 733.462503,143.300007 732.8375,141.85 C732.212497,140.399993 731.9,138.825008 731.9,137.125 Z" id="path-1"></path>
        <filter x="-0.9%" y="-4.3%" width="101.9%" height="111.9%" filterUnits="objectBoundingBox" id="filter-2">
            <feOffset dx="0" dy="2" in="SourceAlpha" result="shadowOffsetOuter1"></feOffset>
            <feGaussianBlur stdDeviation="2" in="shadowOffsetOuter1" result="shadowBlurOuter1"></feGaussianBlur>
            <feColorMatrix values="0 0 0 0 0   0 0 0 0 0   0 0 0 0 0  0 0 0 0.5 0" type="matrix" in="shadowBlurOuter1"></feColorMatrix>
        </filter>
        <filter x="-0.8%" y="-3.4%" width="101.6%" height="110.2%" filterUnits="objectBoundingBox" id="filter-3">
            <feGaussianBlur stdDeviation="1.5" in="SourceAlpha" result="shadowBlurInner1"></feGaussianBlur>
            <feOffset dx="0" dy="1" in="shadowBlurInner1" result="shadowOffsetInner1"></feOffset>
            <feComposite in="shadowOffsetInner1" in2="SourceAlpha" operator="arithmetic" k2="-1" k3="1" result="shadowInnerInner1"></feComposite>
            <feColorMatrix values="0 0 0 0 0   0 0 0 0 0   0 0 0 0 0  0 0 0 0.5 0" type="matrix" in="shadowInnerInner1"></feColorMatrix>
        </filter>
    </defs>
    <g id="frontend" stroke="none" stroke-width="1" fill="none" fill-rule="evenodd">
        <g id="Artboard-Copy-3">
            <g id="TIME’S-UP!">
                <use fill="black" fill-opacity="1" filter="url(#filter-2)" xlink:href="#path-1"></use>
                <use fill="#FFFFFF" fill-rule="evenodd" xlink:href="#path-1"></use>
                <use fill="black" fill-opacity="1" filter="url(#filter-3)" xlink:href="#path-1"></use>
            </g>
        </g>
    </g>
</svg>